<svg id="Layer_1" data-name="Layer 1" xmlns="http://www.w3.org/2000/svg" viewBox="0 0 67 67"><defs><style>.cls-1{fill:#231f20;}</style></defs><path class="cls-1" d="M29.54,54.72a.57.57,0,0,0-.26.05c-.06,0-.09.06-.09.1s0,.11.14.15a.9.9,0,0,0,.36.06.18.18,0,0,0,.14-.06.58.58,0,0,0,0-.27A1.69,1.69,0,0,0,29.54,54.72Zm-.36-2.92a.4.4,0,0,0,.1.28.34.34,0,0,0,.27.09h.32v-.38Zm0,0a.4.4,0,0,0,.1.28.34.34,0,0,0,.27.09h.32v-.38Zm.36,2.92a.57.57,0,0,0-.26.05c-.06,0-.09.06-.09.1s0,.11.14.15a.9.9,0,0,0,.36.06.18.18,0,0,0,.14-.06.58.58,0,0,0,0-.27A1.69,1.69,0,0,0,29.54,54.72Zm0,0a.57.57,0,0,0-.26.05c-.06,0-.09.06-.09.1s0,.11.14.15a.9.9,0,0,0,.36.06.18.18,0,0,0,.14-.06.58.58,0,0,0,0-.27A1.69,1.69,0,0,0,29.54,54.72Zm-.36-2.92a.4.4,0,0,0,.1.28.34.34,0,0,0,.27.09h.32v-.38Zm0,0a.4.4,0,0,0,.1.28.34.34,0,0,0,.27.09h.32v-.38Zm.36,2.92a.57.57,0,0,0-.26.05c-.06,0-.09.06-.09.1s0,.11.14.15a.9.9,0,0,0,.36.06.18.18,0,0,0,.14-.06.58.58,0,0,0,0-.27A1.69,1.69,0,0,0,29.54,54.72Zm0,0a.57.57,0,0,0-.26.05c-.06,0-.09.06-.09.1s0,.11.14.15a.9.9,0,0,0,.36.06.18.18,0,0,0,.14-.06.58.58,0,0,0,0-.27A1.69,1.69,0,0,0,29.54,54.72Zm-.36-2.92a.4.4,0,0,0,.1.28.34.34,0,0,0,.27.09h.32v-.38Zm0,0a.4.4,0,0,0,.1.28.34.34,0,0,0,.27.09h.32v-.38Zm.36,2.92a.57.57,0,0,0-.26.05c-.06,0-.09.06-.09.1s0,.11.14.15a.9.9,0,0,0,.36.06.18.18,0,0,0,.14-.06.58.58,0,0,0,0-.27A1.69,1.69,0,0,0,29.54,54.72Zm0,0a.57.57,0,0,0-.26.05c-.06,0-.09.06-.09.1s0,.11.14.15a.9.9,0,0,0,.36.06.18.18,0,0,0,.14-.06.58.58,0,0,0,0-.27A1.69,1.69,0,0,0,29.54,54.72Zm-.36-2.92a.4.4,0,0,0,.1.28.34.34,0,0,0,.27.09h.32v-.38Zm0,0a.4.4,0,0,0,.1.28.34.34,0,0,0,.27.09h.32v-.38Zm.1,3c-.06,0-.09.06-.09.1s0,.11.14.15a.9.9,0,0,0,.36.06.18.18,0,0,0,.14-.06.58.58,0,0,0,0-.27,1.69,1.69,0,0,0-.33,0A.57.57,0,0,0,29.28,54.77ZM60.58,0H6.42A6.41,6.41,0,0,0,0,6.42V60.58A6.41,6.41,0,0,0,6.42,67H60.58A6.41,6.41,0,0,0,67,60.58V6.42A6.41,6.41,0,0,0,60.58,0ZM16.82,56.24c-.1-.46-.17-.9-.22-1.31s-.06-.88-.06-1.39a27.09,27.09,0,0,1,.2-3.08h2.05a28.29,28.29,0,0,0-.24,3.14,8.55,8.55,0,0,0,.09,1.32,8.07,8.07,0,0,0,.29,1.15ZM24,54.9A11,11,0,0,0,24,56.06c-.44.06-.84.1-1.21.12s-.77,0-1.21,0a2.9,2.9,0,0,1-1.9-.51,1.93,1.93,0,0,1-.6-1.56,4.7,4.7,0,0,1,.05-.63,4.6,4.6,0,0,0,1.7-.48,4.25,4.25,0,0,0,0,.53,1,1,0,0,0,.08.48.43.43,0,0,0,.25.21,1.47,1.47,0,0,0,.46.06c.48,0,.91,0,1.28,0a10.2,10.2,0,0,0,1.31-.22A4.38,4.38,0,0,0,24,54.9Zm-4.66-4.23a17.29,17.29,0,0,1,3.25-.32c.32,0,.68,0,1.09,0,0,.39,0,.72,0,1a8,8,0,0,0,.08.84,12.08,12.08,0,0,0-4.33.17Zm6.09,5.62q-.13-.69-.21-1.32c0-.42-.07-.89-.07-1.41a29.8,29.8,0,0,1,.2-3.1h1.94a22.68,22.68,0,0,0-.21,2.88,10.68,10.68,0,0,0,.35,2.87Zm6.81-.38L32,55.75l-.18-.1-.24-.14a.9.9,0,0,1-.52.61,2.25,2.25,0,0,1-1,.22,4.53,4.53,0,0,1-2-.34,1.09,1.09,0,0,1-.67-1A1,1,0,0,1,28,54a3,3,0,0,1,1.5-.33h.42v-.17H29c-1,0-1.53-.27-1.53-.82a1.86,1.86,0,0,1,.1-.67,4.87,4.87,0,0,0,1.25-.25l-1.25,0V50.41c1.19-.06,2.35-.1,3.47-.1.53,0,1,0,1.58,0v1.45h-1v.33a5.94,5.94,0,0,0,1-.18,5.54,5.54,0,0,0-.07.87,4,4,0,0,0,0,.66l-1,0V54c.32.08.7.19,1.13.33Zm8.84-1.18a2.75,2.75,0,0,1-1,1.16,2.61,2.61,0,0,1-1.42.41A2,2,0,0,1,37.4,56a1.25,1.25,0,0,1-.42-1s0-.15,0-.29,0-.34,0-.41a.64.64,0,0,0-.07-.34.21.21,0,0,0-.21-.12.5.5,0,0,0-.38.23,2.26,2.26,0,0,0-.28.73l-.32,1.52H35.6a16.47,16.47,0,0,0-2-.13,25.18,25.18,0,0,1,.91-3c.47-1.3.87-2.35,1.21-3.16l2.31.22c-.13.25-.28.51-.44.78l-.49.9c-.11.22-.21.45-.31.69a3.11,3.11,0,0,1,.87-.16,1.27,1.27,0,0,1,.86.28,1,1,0,0,1,.33.76,1.79,1.79,0,0,1,0,.34c0,.1,0,.21-.09.34a1.72,1.72,0,0,0-.05.2c0,.05,0,.07.07.07a.56.56,0,0,0,.35-.11,1.14,1.14,0,0,0,.25-.49,7.78,7.78,0,0,0,.19-1.13,3.31,3.31,0,0,0,.88.31,6.08,6.08,0,0,0,1,.08A3.36,3.36,0,0,1,41.12,54.73Zm8.39.44a6.9,6.9,0,0,0-.06,1c-1,.09-2.12.13-3.23.13a5.86,5.86,0,0,1-2.83-.54,1.82,1.82,0,0,1-.94-1.69,2.68,2.68,0,0,1,0-.4c.65-.07,1.33-.16,2-.3a1.44,1.44,0,0,0,0,.24.73.73,0,0,0,.45.74,3.31,3.31,0,0,0,1.29.2c.52,0,1.05,0,1.61-.08s1.23-.13,2-.25A3.86,3.86,0,0,0,49.51,55.17ZM43,50.69a27.43,27.43,0,0,1,3.63-.26,19.79,19.79,0,0,1,2.95.21c0,.37,0,.94.05,1.71a25,25,0,0,0-3.13-.21,20.26,20.26,0,0,0-3.55.32c0-.42.06-.81.06-1.18Zm5,1.86.74-.2a4.78,4.78,0,0,1,.55,1.17l-.76.19A5.18,5.18,0,0,0,48,52.55Zm.31,1.22-.75.19A4.85,4.85,0,0,0,47,52.8l.75-.2A5.17,5.17,0,0,1,48.3,53.77Zm1.86-4.63h-33V9.47h33ZM29.28,52.08a.34.34,0,0,0,.27.09h.32v-.38h-.69A.4.4,0,0,0,29.28,52.08Zm0,2.69c-.06,0-.09.06-.09.1s0,.11.14.15a.9.9,0,0,0,.36.06.18.18,0,0,0,.14-.06.58.58,0,0,0,0-.27,1.69,1.69,0,0,0-.33,0A.57.57,0,0,0,29.28,54.77Zm.26-.05a.57.57,0,0,0-.26.05c-.06,0-.09.06-.09.1s0,.11.14.15a.9.9,0,0,0,.36.06.18.18,0,0,0,.14-.06.58.58,0,0,0,0-.27A1.69,1.69,0,0,0,29.54,54.72Zm-.36-2.92a.4.4,0,0,0,.1.28.34.34,0,0,0,.27.09h.32v-.38Zm0,0a.4.4,0,0,0,.1.28.34.34,0,0,0,.27.09h.32v-.38Zm.36,2.92a.57.57,0,0,0-.26.05c-.06,0-.09.06-.09.1s0,.11.14.15a.9.9,0,0,0,.36.06.18.18,0,0,0,.14-.06.58.58,0,0,0,0-.27A1.69,1.69,0,0,0,29.54,54.72Zm0,0a.57.57,0,0,0-.26.05c-.06,0-.09.06-.09.1s0,.11.14.15a.9.9,0,0,0,.36.06.18.18,0,0,0,.14-.06.58.58,0,0,0,0-.27A1.69,1.69,0,0,0,29.54,54.72Zm-.36-2.92a.4.4,0,0,0,.1.28.34.34,0,0,0,.27.09h.32v-.38Zm0,0a.4.4,0,0,0,.1.28.34.34,0,0,0,.27.09h.32v-.38Zm.36,2.92a.57.57,0,0,0-.26.05c-.06,0-.09.06-.09.1s0,.11.14.15a.9.9,0,0,0,.36.06.18.18,0,0,0,.14-.06.58.58,0,0,0,0-.27A1.69,1.69,0,0,0,29.54,54.72Zm0,0a.57.57,0,0,0-.26.05c-.06,0-.09.06-.09.1s0,.11.14.15a.9.9,0,0,0,.36.06.18.18,0,0,0,.14-.06.58.58,0,0,0,0-.27A1.69,1.69,0,0,0,29.54,54.72Zm-.36-2.92a.4.4,0,0,0,.1.28.34.34,0,0,0,.27.09h.32v-.38Zm0,0a.4.4,0,0,0,.1.28.34.34,0,0,0,.27.09h.32v-.38Zm.36,2.92a.57.57,0,0,0-.26.05c-.06,0-.09.06-.09.1s0,.11.14.15a.9.9,0,0,0,.36.06.18.18,0,0,0,.14-.06.58.58,0,0,0,0-.27A1.69,1.69,0,0,0,29.54,54.72Z"/><rect class="cls-1" x="24.93" y="32.64" width="17.46" height="7.14"/><rect class="cls-1" x="24.93" y="17.25" width="17.46" height="7.46"/></svg>