<svg id="Layer_1" data-name="Layer 1" xmlns="http://www.w3.org/2000/svg" viewBox="0 0 67 67"><defs><style>.cls-1{fill:#231f20;}</style></defs><path class="cls-1" d="M24.47,31.45a1.38,1.38,0,0,1,0-1.86,1.29,1.29,0,0,1,.94-.37h2.43a1.28,1.28,0,0,1,.93.37,1.38,1.38,0,0,1,0,1.86,1.27,1.27,0,0,1-.93.36H25.41A1.28,1.28,0,0,1,24.47,31.45Z"/><path class="cls-1" d="M60.58,0H6.42A6.41,6.41,0,0,0,0,6.42V60.58A6.41,6.41,0,0,0,6.42,67H60.58A6.41,6.41,0,0,0,67,60.58V6.42A6.41,6.41,0,0,0,60.58,0ZM15,15.57h6.77v-3.1h9.73v3.1h6.77v6.31H15Zm2.89,9.36a9.16,9.16,0,0,1,6.31-2.12H29a9.16,9.16,0,0,1,6.31,2.12,7.2,7.2,0,0,1,2.37,5.64,7.22,7.22,0,0,1-2.37,5.64A9.16,9.16,0,0,1,29,38.33H24.16a9.16,9.16,0,0,1-6.31-2.12,7.22,7.22,0,0,1-2.38-5.64A7.21,7.21,0,0,1,17.85,24.93ZM51.27,52.76,16,52.81V40.09h9.72v5.43H51.27ZM55.15,31H51.27v9.06H41.54V13.5h9.73v9.78h3.88Z"/></svg>