<svg id="Layer_1" data-name="Layer 1" xmlns="http://www.w3.org/2000/svg" viewBox="0 0 67 67"><defs><style>.cls-1{fill:#231f20;}</style></defs><path class="cls-1" d="M60.58,0H6.42A6.41,6.41,0,0,0,0,6.42V60.58A6.41,6.41,0,0,0,6.42,67H60.58A6.41,6.41,0,0,0,67,60.58V6.42A6.41,6.41,0,0,0,60.58,0Zm-29,42.67,0-13.19L25.1,40.35H22.8L16.36,29.76V42.67H11.59v-22H15.8L24,34.35l8.1-13.67h4.18l.07,22Zm18.79,1a8.91,8.91,0,0,1-2.88,4.12A7.08,7.08,0,0,1,43.38,49a8.67,8.67,0,0,1-2.61-.41,5.68,5.68,0,0,1-2.1-1.13L40.46,44a4.08,4.08,0,0,0,1.3.79,4,4,0,0,0,1.46.28,2.58,2.58,0,0,0,1.64-.49A4.13,4.13,0,0,0,46,43l.06-.16-7.32-17h5.06l4.74,11.47,4.78-11.47H58Z"/></svg>