<svg id="Layer_1" data-name="Layer 1" xmlns="http://www.w3.org/2000/svg" viewBox="0 0 67 67"><defs><style>.cls-1{fill:#231f20;}</style></defs><path class="cls-1" d="M60.58,0H6.42A6.41,6.41,0,0,0,0,6.42V60.58A6.41,6.41,0,0,0,6.42,67H60.58A6.41,6.41,0,0,0,67,60.58V6.42A6.41,6.41,0,0,0,60.58,0ZM31.74,42.67h-17v-22H31.33v4.09H19.77v4.77H30v4H19.77v5.09h12Zm21,0h-4.9V33.75a4.44,4.44,0,0,0-.88-3,3.24,3.24,0,0,0-2.55-1,3.88,3.88,0,0,0-2.95,1.15,4.75,4.75,0,0,0-1.1,3.41v8.35h-4.9V25.77h4.68v2a6.51,6.51,0,0,1,2.42-1.65,8.36,8.36,0,0,1,3.17-.58,7,7,0,0,1,5.07,1.88A7.5,7.5,0,0,1,52.73,33Z"/></svg>