<svg xmlns="http://www.w3.org/2000/svg" width="666.667" height="666.667" fill-rule="evenodd" clip-rule="evenodd" image-rendering="optimizeQuality" shape-rendering="geometricPrecision" text-rendering="geometricPrecision" viewBox="0 0 17639 17639"><rect width="15476" height="15381" x="1082" y="1129" fill="#bc85f3"/><rect width="12882" height="12803" x="2379" y="2418" fill="#252653"/><path fill="#bc85f3" d="M7304 10585l539 1782 1514 0-2150-7172c-4-13-14-22-35-22l-1779-5c-69 0-71 36-65 104 22 247 10 385-41 578l-1906 6518 1436-2 447-1782 2040 1zm-258-1292l-1474 0 715-2887 759 2887zM11123 10006l2779 4c175-224 207-645 202-921-19-1120-761-2192-2101-2199-2250-13-2676 2832-1910 4473 241 516 725 844 1293 1000 259 71 534 107 812 108 550 2 1109-131 1558-387 7-4 19-4 20-12l0-32-1-927c0-42-32-66-80-51-568 171-2492 717-2581-1004-1-13-4-52 9-52zm1393-929l-1415 0c7-752 352-1179 885-1181 484-2 792 334 807 1163 0 38 0 18 0 18l-277 0z"/></svg>