<svg xmlns="http://www.w3.org/2000/svg" width="666.667" height="666.667" fill-rule="evenodd" clip-rule="evenodd" image-rendering="optimizeQuality" shape-rendering="geometricPrecision" text-rendering="geometricPrecision" viewBox="0 0 17639 17639"><rect width="15452" height="15357" x="1094" y="1141" fill="#e4469c"/><rect width="12862" height="12783" x="2389" y="2428" fill="#252653"/><rect width="1393" height="7081" x="5497" y="5245" fill="#e4469c" rx="58" ry="58"/><path fill="#e4469c" d="M10641 7943l0 3309c-1188,88 -1655,-752 -1672,-1609 -7,-367 65,-739 205,-1038 280,-597 880,-703 1467,-662zm1463 3686l0 -6413 -1509 -29 -12 1596c0,5 -48,-1 -58,0 -183,16 -966,-122 -1741,406 -639,435 -1228,1073 -1248,2496 -24,1716 1081,2684 2666,2763 456,22 942,-38 1368,-210 85,-34 227,-94 349,-151 173,-81 260,-139 208,-317l-23 -141z"/></svg>