<?xml version="1.0" encoding="utf-8"?>
<!-- Generator: Adobe Illustrator 25.2.0, SVG Export Plug-In . SVG Version: 6.00 Build 0)  -->
<svg version="1.1" id="Layer_1" xmlns="http://www.w3.org/2000/svg" xmlns:xlink="http://www.w3.org/1999/xlink" x="0px" y="0px"
	 viewBox="0 0 500 500" style="enable-background:new 0 0 500 500;" xml:space="preserve">
<style type="text/css">
	.st0{fill:url(#Rectangle_1_);}
	.st1{fill:#FFFFFF;}
</style>
<desc>Created with Sketch.</desc>
<g id="lf_Logo">
	<g id="Logo" transform="translate(39.607873, 43.766155)">
		
			<linearGradient id="Rectangle_1_" gradientUnits="userSpaceOnUse" x1="-39.9568" y1="456.5283" x2="-36.9153" y2="454.5411" gradientTransform="matrix(156.2351 0 0 -156.6443 6188.1401 71545.2578)">
			<stop  offset="0" style="stop-color:#2BEAED"/>
			<stop  offset="1" style="stop-color:#0FCCCE"/>
		</linearGradient>
		<path id="Rectangle" class="st0" d="M1-43.8h418.8c22.4,0,40.6,18.1,40.6,40.5v419c0,22.4-18.2,40.5-40.6,40.5H1
			c-22.4,0-40.6-18.1-40.6-40.5v-419C-39.6-25.6-21.4-43.8,1-43.8z"/>
		<path id="path" class="st1" d="M341.4,54.6c13.7,2,23.2,14.8,21.2,28.5c-2,13.7-14.8,23.2-28.5,21.1
			c-24.3-3.6-60.7,34.1-101.4,111.7c-52,99-100.4,146.2-151.4,142.5c-13.8-1-24.2-13-23.2-26.9c1-13.8,13.1-24.2,26.9-23.2
			c25.2,1.9,62.1-37.5,103.3-115.8C240.5,93,289.6,47,341.4,54.6z"/>
	</g>
</g>
</svg>
