<svg id="Layer_1" data-name="Layer 1" xmlns="http://www.w3.org/2000/svg" viewBox="0 0 512 512"><defs><style>.cls-1{fill:#527f9f;}</style></defs><g id="cert"><path class="cls-1" d="M310.2,161.7a24,24,0,0,1-23.9-23.9V0H260.7a5.66,5.66,0,0,1,4.6,8.9L226.4,64.8A72,72,0,0,0,188.2,46L212.3,5.5A11.21,11.21,0,0,1,221.9,0h-90a11.21,11.21,0,0,1,9.6,5.5L165.6,46a71.94,71.94,0,0,0-38.3,18.8L88.5,8.9A5.65,5.65,0,0,1,93.1,0H87.9A23.9,23.9,0,0,0,64,23.9V488.1A23.9,23.9,0,0,0,87.9,512H424.1A23.9,23.9,0,0,0,448,488.1V161.7ZM176.1,179a61.6,61.6,0,1,1,61.6-61.6A61.63,61.63,0,0,1,176.1,179Zm30.2-75.1-18.4-2.7-8.2-16.6a4,4,0,0,0-7.2,0l-8.2,16.6-18.4,2.7a4,4,0,0,0-2.2,6.9L157,123.7,153.9,142a4,4,0,0,0,5.8,4.2l16.4-8.6,16.4,8.6a4,4,0,0,0,5.8-4.2l-3.1-18.3,13.3-12.9A4,4,0,0,0,206.3,103.9ZM441,105,343.1,7a23.69,23.69,0,0,0-16.8-7H320V128H448v-6.2A23.69,23.69,0,0,0,441,105Z"/></g></svg>