<svg id="Layer_1" data-name="Layer 1" xmlns="http://www.w3.org/2000/svg" viewBox="0 0 67 67"><defs><style>.cls-1{fill:#231f20;}</style></defs><path class="cls-1" d="M60.58,0H6.42A6.41,6.41,0,0,0,0,6.42V60.58A6.41,6.41,0,0,0,6.42,67H60.58A6.41,6.41,0,0,0,67,60.58V6.42A6.41,6.41,0,0,0,60.58,0ZM34.32,42.67h-17v-22H33.91v4.09H22.35v4.77H32.56v4H22.35v5.09h12Zm16.3-2.32a6,6,0,0,1-2.75,1.9,12.23,12.23,0,0,1-4.29.67,16.65,16.65,0,0,1-4.11-.51,10.79,10.79,0,0,1-3.21-1.31l1.64-3.52a9.81,9.81,0,0,0,2.73,1.18,11.26,11.26,0,0,0,3.14.46c2.08,0,3.11-.52,3.11-1.54a1.09,1.09,0,0,0-.84-1,12.28,12.28,0,0,0-2.61-.53A23.84,23.84,0,0,1,40,35.38a5.3,5.3,0,0,1-2.34-1.44,4.11,4.11,0,0,1-1-2.95,4.64,4.64,0,0,1,.93-2.85,6,6,0,0,1,2.7-1.93,11.55,11.55,0,0,1,4.2-.69,16.52,16.52,0,0,1,3.56.39A10,10,0,0,1,51,27l-1.63,3.48a9.84,9.84,0,0,0-4.87-1.25,4.87,4.87,0,0,0-2.36.44,1.3,1.3,0,0,0-.79,1.13,1.13,1.13,0,0,0,.85,1.1,14.54,14.54,0,0,0,2.7.59,31.2,31.2,0,0,1,3.4.74,5.08,5.08,0,0,1,2.29,1.43,4.06,4.06,0,0,1,1,2.89A4.46,4.46,0,0,1,50.62,40.35Z"/></svg>