<svg id="a685e96e-47c8-47d7-a226-0fd2e1f47d13" data-name="Layer 1" xmlns="http://www.w3.org/2000/svg" viewBox="0 0 300 300"><defs><style>.a738f969-1d06-4c5d-96b0-9fc90b79a905{fill:#1d181c;}.f9304f21-886b-4c0c-900f-e353d9421649{fill:#9b4337;}.aa9cb132-f64c-4eef-9c97-5b4aae0bf8e5{fill:#4e5323;}.bf62f8e7-cafc-4f3b-9365-e9e60ab93bb8{fill:#a18e52;}.ac6faf67-67d3-4b83-9f96-55cc05accbcc{fill:#e1ddd1;}.e77b5c33-65f7-4548-8321-9f25fb99c1f5{fill:#c7a5a8;}.b77301c8-f140-4798-a75d-b570fea9e531{fill:#3b3c69;}.a786062f-f314-4d10-9dbc-68353db454f5{fill:#92bfcb;}.ae92872b-7214-49e4-80ca-b3c1bc4577cc{fill:#a04d5b;}.b027d052-9217-402c-85c9-30a0a92f4e1d{fill:#dbbb7a;}.eca5c8cb-5024-4638-830d-be27fb004c77{fill:#75877e;}.f65b86da-8de7-4558-8d3c-0e8a2834722b{fill:#9b5963;}.be300749-4b20-4890-8066-6a95b911acda{fill:#788f98;}.e2749afb-afab-4005-9be9-bee46a807f92{fill:#9acc9d;}.b6a8f1f7-bd1f-4830-b709-a6203e4e9571{fill:#d69d42;}.a0600fa6-5953-40e6-8ad0-6911a8469bff{fill:none;stroke:#bde0bf;stroke-miterlimit:10;stroke-width:0.5px;}</style></defs><path class="a738f969-1d06-4c5d-96b0-9fc90b79a905" d="M260.78,167.41c0,25.51-4.41,47.35-13.09,65-1,2.07-2.09,4.08-3.22,6a42.21,42.21,0,0,0-23.76-10.88l.54-.06-.72-.08q-1.71-.21-3.48-.27l-1.77,0a45.76,45.76,0,0,0-8.44.77q-.32,0-.63.12c-17.81,3.35-31.13,16.87-31.13,33a30.48,30.48,0,0,0,7.79,20.11,153.72,153.72,0,0,1-27.35,1.9c-8.86-.06-18.35-.66-28.35-1.68a30.6,30.6,0,0,0,8-20.33c0-18.69-17.81-33.84-39.78-33.84q-.89,0-1.77,0a42.78,42.78,0,0,0-27.84,11.21c-10.81-18.63-16.31-42.55-16.31-71.05a160.63,160.63,0,0,1,10.23-57l-.06,0c10.78-31.07,6.69-60.7-.54-88.6,17.41,23.16,57,43.92,76.71,43.75h38.9c19.81,0,59.13-20.68,76.47-43.75q-.72,2.81-1.4,5.62c-6.31,26.25-9.2,54,.86,83l-.06,0A160.63,160.63,0,0,1,260.78,167.41Z"/><polygon class="f9304f21-886b-4c0c-900f-e353d9421649" points="154.4 200.74 134.6 155.75 155.58 125.94 175.63 155.1 154.4 200.74"/><path class="aa9cb132-f64c-4eef-9c97-5b4aae0bf8e5" d="M221.26,227.53c-.19,0-.37,0-.55.06h0l-.13,0c-1.29-.16-2.6-.26-3.93-.31l-1.77,0a46.83,46.83,0,0,0-8,.69,45.76,45.76,0,0,1,8.44-.77q.89,0,1.77,0,1.77.06,3.48.27Z"/><path class="bf62f8e7-cafc-4f3b-9365-e9e60ab93bb8" d="M85.35,261.86c11.32,9.44,25.28,16,41.82,19.54-16.89-3.51-31.95-10.15-41.82-19.53Z"/><circle class="ac6faf67-67d3-4b83-9f96-55cc05accbcc" cx="127.69" cy="127.12" r="27.91"/><circle cx="127.7" cy="126.43" r="16.11"/><path class="aa9cb132-f64c-4eef-9c97-5b4aae0bf8e5" d="M155.13,126.48h0v-.12A.49.49,0,0,1,155.13,126.48Z"/><path class="aa9cb132-f64c-4eef-9c97-5b4aae0bf8e5" d="M206.21,228c-17.6,3.48-30.71,16.91-30.71,33a30.54,30.54,0,0,0,7.79,20.12l.18.21-.42.08a1.92,1.92,0,0,1-.18-.22,30.48,30.48,0,0,1-7.79-20.11C175.08,244.91,188.4,231.39,206.21,228Z"/><path class="bf62f8e7-cafc-4f3b-9365-e9e60ab93bb8" d="M225.29,261.78c-11.32,9.44-25.28,16-41.82,19.54,16.89-3.51,31.95-10.15,41.82-19.53Z"/><path class="e77b5c33-65f7-4548-8321-9f25fb99c1f5" d="M135.93,261.86c-.08,7.63-3.76,13.87-8.76,19.54-53.24-9.06-79.9-54.49-77.54-122.08C63.05,196.89,136.31,225.25,135.93,261.86Z"/><circle class="ac6faf67-67d3-4b83-9f96-55cc05accbcc" cx="183.53" cy="128.1" r="27.91"/><circle cx="184.46" cy="128.1" r="16.11"/><path class="b77301c8-f140-4798-a75d-b570fea9e531" d="M155.61,127v.12H99.79a26.24,26.24,0,0,1,.25-3.68h0a27.46,27.46,0,0,1,3.13-9.64h0c.31-.58.65-1.13,1-1.68s.62-.95.95-1.4c.21-.3.43-.58.66-.86.51-.65,1-1.28,1.63-1.89a27.15,27.15,0,0,1,2.9-2.67s0,0,0,0a26.43,26.43,0,0,1,3.28-2.25,25.28,25.28,0,0,1,2.64-1.36l.51-.23a27.36,27.36,0,0,1,2.84-1l0,0a27.89,27.89,0,0,1,24.26,4,24.09,24.09,0,0,1,2.39,1.91l.18.16a27.37,27.37,0,0,1,2.2,2.24l.16.18a28.57,28.57,0,0,1,2,2.57,27.68,27.68,0,0,1,4.7,13.32c0,.12,0,.24,0,.37v0c0,.12,0,.25,0,.37,0,.36,0,.73,0,1.1C155.6,126.77,155.61,126.88,155.61,127Z"/><path class="a786062f-f314-4d10-9dbc-68353db454f5" d="M113.85,119.18c1.47-2.42,4.17-2.56,3.22,1.1,3.37,1.23,2.14,4.17-.61,3.18.61,3.13-3,3.6-2.57-.38-1.85,3.22-5.64-.72-1.7-2.19C109.29,119.09,112.76,116.34,113.85,119.18Z"/><circle class="ae92872b-7214-49e4-80ca-b3c1bc4577cc" cx="114.63" cy="121.06" r="1.3"/><path class="a786062f-f314-4d10-9dbc-68353db454f5" d="M104.87,117.71c-1.23-1.54-.68-3.34,1.48-1.84,1.61-1.9,3.24-.39,1.93,1.16,2.19.35,1.62,2.85-.87,1.58,1.67,2-1.81,3.52-1.83.59C103.71,120.66,102.75,117.74,104.87,117.71Z"/><circle class="ae92872b-7214-49e4-80ca-b3c1bc4577cc" cx="106.28" cy="117.65" r="0.91"/><path class="b027d052-9217-402c-85c9-30a0a92f4e1d" d="M105.44,123.56c-1.23-1.54-.67-3.34,1.48-1.84,1.62-1.9,3.24-.4,1.93,1.16,2.19.35,1.63,2.85-.86,1.58,1.66,2-1.82,3.51-1.83.59C104.29,126.51,103.32,123.59,105.44,123.56Z"/><circle class="eca5c8cb-5024-4638-830d-be27fb004c77" cx="106.85" cy="123.5" r="0.91"/><path class="b027d052-9217-402c-85c9-30a0a92f4e1d" d="M103,126.16a2,2,0,0,1,.53,1h-2a2,2,0,0,1-.13-.25,2,2,0,0,1,0,.25h-1.5a26.24,26.24,0,0,1,.25-3.68h0c.44-1.1,1.5-1.32,2.11.62C104.59,123.55,104.94,125.73,103,126.16Z"/><circle class="eca5c8cb-5024-4638-830d-be27fb004c77" cx="100.99" cy="125.41" r="0.91"/><path class="f65b86da-8de7-4558-8d3c-0e8a2834722b" d="M110.65,115.57c-1.76-.88-2-2.75.57-2.3.66-2.4,2.77-1.72,2.23.25,2.14-.61,2.68,1.89-.11,1.79,2.34,1.1-.17,4-1.42,1.31C110.84,118.73,108.74,116.48,110.65,115.57Z"/><circle class="be300749-4b20-4890-8066-6a95b911acda" cx="111.9" cy="114.92" r="0.91"/><path class="f65b86da-8de7-4558-8d3c-0e8a2834722b" d="M125.94,99.26c-2.33,1.22-3.75,2.57-3.61,4.17.15,2.27,2.14,3.48,6.48,3.33-2.45.47-3.93,1.17-4.14,2.16,1.44,1.31,3.61,2,6.39,2.14.76,2.1,3.46,4.7,6.93,7.5-1.75-3-3.19-5.76-3.1-7.55-2-.52-3.66-5.32-1.4-5a9.28,9.28,0,0,0,3.51-.72c-3.54,0-6.42-.25-6.3-1.53a7.41,7.41,0,0,1,3.24-2.16l2.74-.94A21.48,21.48,0,0,0,125.94,99.26Z"/><path class="ac6faf67-67d3-4b83-9f96-55cc05accbcc" d="M124,108.57c.24,3.33,2.32,6.83,4.12,10.6C127.83,114.82,126.7,111.11,124,108.57Z"/><path class="ac6faf67-67d3-4b83-9f96-55cc05accbcc" d="M125.92,107.93c-1.09,3.16-.56,7.2-.38,11.37C127,115.2,127.42,111.34,125.92,107.93Z"/><path class="ac6faf67-67d3-4b83-9f96-55cc05accbcc" d="M128.11,108.38c-2.24,2.48-3.32,6.41-4.79,10.32C126.26,115.48,128.16,112.09,128.11,108.38Z"/><path class="ac6faf67-67d3-4b83-9f96-55cc05accbcc" d="M131.74,112.8c-3.18-1-7.2-.4-11.37-.13C124.51,114,128.38,114.37,131.74,112.8Z"/><path class="ac6faf67-67d3-4b83-9f96-55cc05accbcc" d="M130.63,116.74c-1.78-2.83-5.27-4.93-8.64-7.4C124.29,113,127,115.78,130.63,116.74Z"/><path class="ac6faf67-67d3-4b83-9f96-55cc05accbcc" d="M130.21,109.54c-3.13,1.19-5.88,4.18-9,7C125.32,115,128.55,112.87,130.21,109.54Z"/><path class="ac6faf67-67d3-4b83-9f96-55cc05accbcc" d="M141.79,106.76c-1.68,2.2-2.3,5.5-3.25,8.83C140.75,112.74,142.08,109.82,141.79,106.76Z"/><path class="ac6faf67-67d3-4b83-9f96-55cc05accbcc" d="M143.33,107.42c-2.4,1.36-4.28,4.16-6.46,6.84C140,112.51,142.4,110.35,143.33,107.42Z"/><path class="ac6faf67-67d3-4b83-9f96-55cc05accbcc" d="M144.45,108.89c-2.75.32-5.56,2.16-8.61,3.78C139.42,112.28,142.45,111.22,144.45,108.89Z"/><path class="ac6faf67-67d3-4b83-9f96-55cc05accbcc" d="M144.28,113.62c-1.41-2.38-4.25-4.19-7-6.3C139.12,110.42,141.33,112.75,144.28,113.62Z"/><path class="ac6faf67-67d3-4b83-9f96-55cc05accbcc" d="M141.44,115.45c.44-2.73-.58-5.94-1.31-9.31C139.53,109.69,139.74,112.9,141.44,115.45Z"/><path class="ac6faf67-67d3-4b83-9f96-55cc05accbcc" d="M145.11,110.76c-2.59-1-5.93-.62-9.39-.58C139.08,111.48,142.27,111.92,145.11,110.76Z"/><path class="f65b86da-8de7-4558-8d3c-0e8a2834722b" d="M107,112.1c1.69,1.44-.09,3.28-1.55.9.3,2-2.05,2.13-2.23.79h0c.31-.58.65-1.13,1-1.68s.62-.95.95-1.4c.21-.3.43-.58.66-.86a2.1,2.1,0,0,1,.13.26C108.28,109.32,108.88,111.45,107,112.1Z"/><path class="be300749-4b20-4890-8066-6a95b911acda" d="M105.49,112.3a.92.92,0,0,1-1.28-.15l0-.05c.29-.48.62-.95.95-1.4a1,1,0,0,1,.5.32A.91.91,0,0,1,105.49,112.3Z"/><path class="f65b86da-8de7-4558-8d3c-0e8a2834722b" d="M110.71,108.78c-.46,2.17-2.93,1.47-1.53-1a1.34,1.34,0,0,1-1.76.12,27.15,27.15,0,0,1,2.9-2.67s0,0,0,0c1.57-1,3.21-.37,1.64,1.65C113.79,108.63,112.2,110.17,110.71,108.78Z"/><circle class="be300749-4b20-4890-8066-6a95b911acda" cx="110.21" cy="106.75" r="0.91"/><ellipse class="e2749afb-afab-4005-9be9-bee46a807f92" cx="117.08" cy="112.7" rx="1.31" ry="1.83" transform="translate(-28.17 185.57) rotate(-70.55)"/><ellipse class="e2749afb-afab-4005-9be9-bee46a807f92" cx="119.57" cy="110.68" rx="1.83" ry="1.31" transform="matrix(0.5, -0.87, 0.87, 0.5, -36.07, 158.89)"/><ellipse class="e2749afb-afab-4005-9be9-bee46a807f92" cx="118.36" cy="115.82" rx="1.31" ry="1.83" transform="translate(-35.83 55.42) rotate(-22.99)"/><ellipse class="e2749afb-afab-4005-9be9-bee46a807f92" cx="135.6" cy="102.64" rx="2.21" ry="1.58" transform="matrix(0.59, -0.81, 0.81, 0.59, -27.19, 151.83)"/><ellipse class="e2749afb-afab-4005-9be9-bee46a807f92" cx="137.08" cy="106.21" rx="1.58" ry="2.21" transform="translate(-35.5 123.18) rotate(-43.38)"/><ellipse class="e2749afb-afab-4005-9be9-bee46a807f92" cx="131.55" cy="103.04" rx="2.21" ry="1.58" transform="translate(-10.62 15.23) rotate(-6.37)"/><ellipse class="e2749afb-afab-4005-9be9-bee46a807f92" cx="141.83" cy="124.62" rx="1.96" ry="2.73" transform="translate(-46.85 131.47) rotate(-43.38)"/><ellipse class="e2749afb-afab-4005-9be9-bee46a807f92" cx="146.84" cy="115.74" rx="3.04" ry="2.18" transform="translate(10.68 243.88) rotate(-81.51)"/><ellipse class="e2749afb-afab-4005-9be9-bee46a807f92" cx="151.68" cy="123.24" rx="3.16" ry="4.41" transform="translate(-43.21 137.86) rotate(-43.38)"/><path class="f65b86da-8de7-4558-8d3c-0e8a2834722b" d="M145.56,119.09c0-3.45,2.68-5.33,4-.93,4.28-.89,4.89,3,1.4,3.69,2.65,2.84-.84,5.68-2.9,1.24.15,4.54-6.31,2.89-3.17-1.16C140.77,121.92,142.6,116.84,145.56,119.09Z"/><circle class="f65b86da-8de7-4558-8d3c-0e8a2834722b" cx="147.57" cy="120.53" r="1.59"/><path class="a786062f-f314-4d10-9dbc-68353db454f5" d="M146.93,118.42c1.79-3,5.08-3.12,3.93,1.33,4.1,1.5,2.6,5.09-.75,3.87.75,3.82-3.7,4.4-3.13-.46-2.25,3.93-6.88-.87-2.08-2.66C141.38,118.3,145.6,115,146.93,118.42Z"/><circle class="ae92872b-7214-49e4-80ca-b3c1bc4577cc" cx="147.88" cy="120.7" r="1.59"/><path class="ac6faf67-67d3-4b83-9f96-55cc05accbcc" d="M130.39,127.12c-2-1.61-2.69-3.13-1.42-4.53a26.31,26.31,0,0,1,5.92-4C130.44,122.06,129.41,125,130.39,127.12Z"/><path class="ac6faf67-67d3-4b83-9f96-55cc05accbcc" d="M130.39,127.12c1.84-1.52,5.3-.89,7.67-2.71C138,127,135.32,126.91,130.39,127.12Z"/><path class="ac6faf67-67d3-4b83-9f96-55cc05accbcc" d="M130.39,127.12c3.68-1.4,6.45-2.25,5.89-5.43C133.54,125.19,130.87,125.89,130.39,127.12Z"/><path class="ac6faf67-67d3-4b83-9f96-55cc05accbcc" d="M130.39,127.12c2.25-1.35,2.41-3.73,1.3-10.19A58.84,58.84,0,0,1,130.39,127.12Z"/><path class="a786062f-f314-4d10-9dbc-68353db454f5" d="M138.09,120.17c-1.18,1.26-3.34,2.16-6.09,2.84-.55.58-.56,1.06,1.5,1.18,2.43-1,4.27-2.1,5.11-3.58Z"/><path class="a786062f-f314-4d10-9dbc-68353db454f5" d="M139.59,119.19l.62.42c1-1,3.41-3.25,3.41-4.75-.74-.19-.86-.18-1.25,0C142.06,116.72,140.33,118.5,139.59,119.19Z"/><ellipse class="b027d052-9217-402c-85c9-30a0a92f4e1d" cx="139.2" cy="119.99" rx="1.13" ry="0.85"/><path class="b6a8f1f7-bd1f-4830-b709-a6203e4e9571" d="M120.28,127.12c-1.3-2.22-.16-4.34,2.28-6.42,4.17,1.51,5.54,3.76,5.14,6.47h-1.27c.61-2-.22-3.73-3.56-4.88-1.89,1.24-2.66,2.8-1.53,4.88Z"/><path class="e2749afb-afab-4005-9be9-bee46a807f92" d="M116.94,104.65c-.63.6-1.83.36-2.67-.52a2.71,2.71,0,0,1-.65-1.11,25.28,25.28,0,0,1,2.64-1.36,2.81,2.81,0,0,1,.31.29,3.92,3.92,0,0,1,.27.33,2.48,2.48,0,0,1,.44,1A1.42,1.42,0,0,1,116.94,104.65Z"/><path class="e2749afb-afab-4005-9be9-bee46a807f92" d="M119.94,101.6c.07,1.22-.57,2.25-1.44,2.31a1.46,1.46,0,0,1-1.22-.64,2.72,2.72,0,0,1-.44-1,3.46,3.46,0,0,1-.07-.48,2.28,2.28,0,0,1,0-.37,27.36,27.36,0,0,1,2.84-1A3,3,0,0,1,119.94,101.6Z"/><path class="e2749afb-afab-4005-9be9-bee46a807f92" d="M150.81,111.48a1.88,1.88,0,0,1-2.33.91c-.76-.44-.88-1.65-.27-2.71a2.89,2.89,0,0,1,.64-.77A28.57,28.57,0,0,1,150.81,111.48Z"/><path class="e2749afb-afab-4005-9be9-bee46a807f92" d="M148.69,108.73a1.63,1.63,0,0,1-1.67.84c-.85-.22-1.29-1.36-1-2.54a.88.88,0,0,1,.05-.15,2.45,2.45,0,0,1,.23-.55l.18.16A27.37,27.37,0,0,1,148.69,108.73Z"/><path class="e2749afb-afab-4005-9be9-bee46a807f92" d="M146.49,106.49a1.91,1.91,0,0,1-.41.39,2.77,2.77,0,0,1-1,.49c-1.19.31-2.32-.13-2.54-1s.42-1.6,1.4-2a24.09,24.09,0,0,1,2.39,1.91Z"/><path class="b77301c8-f140-4798-a75d-b570fea9e531" d="M211.43,127v.12H155.61c0-.58,0-1.15.06-1.72a20.54,20.54,0,0,1,.2-2.09h0c.08-.66.19-1.3.32-1.94a24.53,24.53,0,0,1,.81-3c.13-.44.29-.87.45-1.3s.4-1,.63-1.5a27.62,27.62,0,0,1,2.13-3.84,2.11,2.11,0,0,1,.18-.27,28,28,0,0,1,11.21-9.62c.82-.38,1.65-.73,2.51-1,.45-.16.9-.31,1.36-.45s.88-.26,1.33-.36.92-.22,1.38-.31c.75-.15,1.51-.26,2.28-.34.47-.06.95-.1,1.43-.12s1.08,0,1.62,0c.8,0,1.58,0,2.36.1s1.4.14,2.08.26a28.58,28.58,0,0,1,3.47.77,27.49,27.49,0,0,1,4.26,1.67c.28.13.56.27.83.42s.83.44,1.23.69c.59.34,1.16.71,1.72,1.1a26.91,26.91,0,0,1,3.59,3c.51.49,1,1,1.46,1.54l.12.14c.28.31.54.64.8,1s.51.65.74,1l.37.51h0a27.82,27.82,0,0,1,4.77,13.44c0,.12,0,.24,0,.37v0c0,.12,0,.25,0,.37,0,.36,0,.73,0,1.1C211.42,126.75,211.43,126.86,211.43,127Z"/><path class="f65b86da-8de7-4558-8d3c-0e8a2834722b" d="M202.11,127.1c1.23,0-1.85-3.64-2.88-3.65-.24-.42,2.7,0,3.72,1.1s1.7-3,.9-3.68c.19-.42,3.34,1.4,3.54,2.22.12.5,1.26-2,1.26-2l.48-2.46.88-.36a27.44,27.44,0,0,1,1.42,8.81Z"/><path class="ac6faf67-67d3-4b83-9f96-55cc05accbcc" d="M196.05,105.92c-1.5,2-2.06,4.93-2.9,7.91C195.12,111.28,196.31,108.66,196.05,105.92Z"/><path class="ac6faf67-67d3-4b83-9f96-55cc05accbcc" d="M197.44,106.51c-2.16,1.22-3.84,3.73-5.79,6.13C194.47,111.07,196.6,109.13,197.44,106.51Z"/><path class="ac6faf67-67d3-4b83-9f96-55cc05accbcc" d="M198.44,107.83c-2.46.28-5,1.93-7.72,3.39C193.93,110.87,196.64,109.92,198.44,107.83Z"/><path class="ac6faf67-67d3-4b83-9f96-55cc05accbcc" d="M198.28,112.07c-1.26-2.13-3.8-3.76-6.25-5.65C193.66,109.2,195.64,111.29,198.28,112.07Z"/><path class="ac6faf67-67d3-4b83-9f96-55cc05accbcc" d="M195.74,113.71c.39-2.45-.52-5.32-1.18-8.35C194,108.55,194.21,111.42,195.74,113.71Z"/><path class="ac6faf67-67d3-4b83-9f96-55cc05accbcc" d="M199,109.5c-2.32-.87-5.32-.55-8.41-.51C193.63,110.15,196.48,110.54,199,109.5Z"/><path class="ac6faf67-67d3-4b83-9f96-55cc05accbcc" d="M201.82,114.06c-.55,3.24.61,7.08,1.45,11.11C204,120.94,203.82,117.12,201.82,114.06Z"/><path class="ac6faf67-67d3-4b83-9f96-55cc05accbcc" d="M203.82,113.91c-1.79,2.76-2.23,6.74-3,10.78C203.13,121.1,204.44,117.51,203.82,113.91Z"/><path class="ac6faf67-67d3-4b83-9f96-55cc05accbcc" d="M205.81,114.85c-2.73,1.84-4.69,5.34-7,8.73C202.37,121.2,205,118.41,205.81,114.85Z"/><path class="ac6faf67-67d3-4b83-9f96-55cc05accbcc" d="M208.23,119.93c-2.8-1.73-6.79-2.08-10.84-2.81C201,119.4,204.65,120.64,208.23,119.93Z"/><path class="ac6faf67-67d3-4b83-9f96-55cc05accbcc" d="M206.24,123.43c-1-3.12-3.87-6-6.51-9.11C201.06,118.4,203,121.67,206.24,123.43Z"/><path class="ac6faf67-67d3-4b83-9f96-55cc05accbcc" d="M207.53,116.45c-3.26.4-6.6,2.62-10.22,4.57C201.57,120.53,205.17,119.24,207.53,116.45Z"/><path class="e2749afb-afab-4005-9be9-bee46a807f92" d="M194.91,127.1h-2a3,3,0,0,1-.26-.24l0,0-.33-.33-.07-.06s0,0,0,0l-.22-.23-.46-.48c-.3-.33-.58-.66-.85-1a12,12,0,0,1-1.43-2.23,11,11,0,0,1,3.11,1.85l.42.36c.1.09.21.19.31.3a5,5,0,0,1,.46.46h0v0l.34.36,0,.06.31.36C194.49,126.54,194.7,126.81,194.91,127.1Z"/><path class="e2749afb-afab-4005-9be9-bee46a807f92" d="M194.09,127.1H192.5a1.34,1.34,0,0,1-.07-.18.88.88,0,0,1-.09-.2.61.61,0,0,1-.05-.12,1.11,1.11,0,0,1-.07-.16s0,0,0,0l-.15-.37c-.06-.17-.13-.33-.19-.5s-.15-.4-.21-.59a15.3,15.3,0,0,1-.45-1.47,12,12,0,0,1-.37-2.33,11.28,11.28,0,0,1,1.65,2.07,10.66,10.66,0,0,1,.55,1h0c.11.21.21.43.3.65a5.83,5.83,0,0,1,.23.58v0c.09.22.17.44.24.67,0,.07.05.14.07.22s0,0,0,0C194,126.64,194,126.87,194.09,127.1Z"/><path class="e2749afb-afab-4005-9be9-bee46a807f92" d="M193.93,124.65q0,.46,0,.93a2.44,2.44,0,0,1,0,.27.76.76,0,0,1,0,.15c0,.13,0,.25,0,.38a.09.09,0,0,1,0,.05c0,.22,0,.44-.06.67H192.3a.33.33,0,0,1,0-.14,2.35,2.35,0,0,1,0-.26v-.2c0-.31,0-.62,0-.93,0-.07,0-.15,0-.22s0-.15,0-.22c0-.27,0-.53,0-.79s.07-.75.13-1.11a11.09,11.09,0,0,1,.59-2.48,10.42,10.42,0,0,1,.68,2.36A11.16,11.16,0,0,1,193.93,124.65Z"/><path class="e2749afb-afab-4005-9be9-bee46a807f92" d="M198.19,123.57a11.27,11.27,0,0,1-3.18,2.35,7.12,7.12,0,0,1-.74.35,2.87,2.87,0,0,1-.37.15h0l-.29.11c-.3.12-.61.22-.92.31h0l-.22.06-.13,0-.52.14H188.7c.74-.36,1.47-.73,2.19-1.07l.64-.32.34-.16.44-.2.15-.07.16-.07.47-.21.25-.11.59-.24.78-.29A13.21,13.21,0,0,1,198.19,123.57Z"/><path class="e2749afb-afab-4005-9be9-bee46a807f92" d="M197.66,127.1h-4.32l-.09,0-.58-.22,0,0-.28-.11-.05,0-.45-.2h0c-.32-.15-.63-.3-.94-.47a25,25,0,0,1-3.24-2c1,.26,2,.5,3,.74l1,.24.66.17.19.05.11,0,.93.25h0l.36.11a.64.64,0,0,1,.18.06l.9.28A16.46,16.46,0,0,1,197.66,127.1Z"/><path class="e2749afb-afab-4005-9be9-bee46a807f92" d="M195.5,121.06a11,11,0,0,1-.79,3.3,11.38,11.38,0,0,1-.6,1.28,1.82,1.82,0,0,1-.15.27.41.41,0,0,1-.05.09.51.51,0,0,1-.09.16c-.07.13-.15.25-.23.38l-.34.53s0,0,0,0h-1.68c.09-.2.19-.4.29-.6h0a2.2,2.2,0,0,1,.15-.31.91.91,0,0,1,.07-.14l.24-.48a2.69,2.69,0,0,1,.16-.29l0-.1q.13-.25.27-.48c.08-.16.17-.31.26-.46h0c.23-.39.47-.76.72-1.12A12.06,12.06,0,0,1,195.5,121.06Z"/><path class="f65b86da-8de7-4558-8d3c-0e8a2834722b" d="M189.25,111.63c-2.94,1.42-5.37,4.59-8.14,7.6C185,117.39,187.93,115,189.25,111.63Z"/><path class="f65b86da-8de7-4558-8d3c-0e8a2834722b" d="M190.53,113.15c-3.27.15-6.75,2.11-10.48,3.78C184.31,116.76,188,115.74,190.53,113.15Z"/><path class="f65b86da-8de7-4558-8d3c-0e8a2834722b" d="M190.92,115.3c-3.07-1.13-7-.69-11.12-.6C183.79,116.2,187.56,116.7,190.92,115.3Z"/><path class="f65b86da-8de7-4558-8d3c-0e8a2834722b" d="M188.22,120.21c-.23-3.27-2.26-6.7-4-10.39C184.47,114.08,185.57,117.72,188.22,120.21Z"/><path class="f65b86da-8de7-4558-8d3c-0e8a2834722b" d="M184.24,120.63c1.92-2.65,2.56-6.59,3.58-10.55C185.3,113.52,183.8,117,184.24,120.63Z"/><path class="f65b86da-8de7-4558-8d3c-0e8a2834722b" d="M190.62,117.63c-2.21-2.41-5.94-3.83-9.61-5.62C183.87,115.17,187,117.33,190.62,117.63Z"/><path class="b027d052-9217-402c-85c9-30a0a92f4e1d" d="M173.28,122.8c.22-2,1.88-2.84,2.35-.26,2.49-.2,2.57,2,.54,2.19,1.3,1.79-.86,3.16-1.73.51-.22,2.57-3.76,1.2-1.71-.88C170.38,124.07,171.76,121.32,173.28,122.8Z"/><circle class="eca5c8cb-5024-4638-830d-be27fb004c77" cx="174.32" cy="123.75" r="0.91"/><path class="b027d052-9217-402c-85c9-30a0a92f4e1d" d="M165,121.56c-1.23-1.53-.67-3.33,1.48-1.84,1.62-1.9,3.24-.39,1.93,1.16,2.19.35,1.63,2.85-.86,1.59,1.66,2-1.82,3.51-1.83.59C163.82,124.51,162.85,121.59,165,121.56Z"/><circle class="eca5c8cb-5024-4638-830d-be27fb004c77" cx="166.38" cy="121.5" r="0.91"/><path class="f65b86da-8de7-4558-8d3c-0e8a2834722b" d="M170.47,118.66c-1.76-.88-2-2.75.57-2.3.66-2.4,2.77-1.71,2.24.25,2.13-.61,2.67,1.9-.12,1.8,2.34,1.09-.17,4-1.41,1.3C170.66,121.82,168.56,119.58,170.47,118.66Z"/><circle class="be300749-4b20-4890-8066-6a95b911acda" cx="171.72" cy="118.01" r="0.91"/><path class="a786062f-f314-4d10-9dbc-68353db454f5" d="M177.57,117.88c1.14-1.6,3-1.55,2.17.93,2.27,1,1.26,3-.59,2.17.26,2.2-2.3,2.34-1.76-.4-1.45,2.14-3.87-.79-1.07-1.6C174.41,117.58,177,115.85,177.57,117.88Z"/><circle class="ae92872b-7214-49e4-80ca-b3c1bc4577cc" cx="178.01" cy="119.22" r="0.91"/><path class="f65b86da-8de7-4558-8d3c-0e8a2834722b" d="M160,125.82a1.83,1.83,0,0,1,1.15,1.28h-5.39a1.58,1.58,0,0,1,.92-1,3.66,3.66,0,0,1-1-.75,20.54,20.54,0,0,1,.2-2.09h0a3.76,3.76,0,0,1,1.54,0c.81-3,3.41-2.12,2.75.3C162.8,122.85,163.46,125.94,160,125.82Z"/><circle class="be300749-4b20-4890-8066-6a95b911acda" cx="158.26" cy="125.33" r="1.12"/><path class="a786062f-f314-4d10-9dbc-68353db454f5" d="M160,118.38c1.89,2.17-.11,3.76-1.66,2-.47,1.5-1.7,1.67-2.13,1a24.53,24.53,0,0,1,.81-3c.13-.44.29-.87.45-1.3s.4-1,.63-1.5a1.81,1.81,0,0,1,0,.79C160.1,115.24,162.06,116.17,160,118.38Z"/><path class="ae92872b-7214-49e4-80ca-b3c1bc4577cc" d="M158.88,118.49a1,1,0,0,1-1.42.42.93.93,0,0,1-.45-.53c.13-.44.29-.87.45-1.3a1.06,1.06,0,0,1,1,0A1,1,0,0,1,158.88,118.49Z"/><path class="e2749afb-afab-4005-9be9-bee46a807f92" d="M167.08,127.1h-4.14a2.23,2.23,0,0,1-.08-2.86c.78-.74,2.26-.45,3.3.64A3.11,3.11,0,0,1,167.08,127.1Z"/><path class="e2749afb-afab-4005-9be9-bee46a807f92" d="M171.31,126.61a3.75,3.75,0,0,1-.25.49h-3.58a3.38,3.38,0,0,1,.23-2c.59-1.39,1.87-2.17,2.87-1.75S171.9,125.22,171.31,126.61Z"/><path class="a0600fa6-5953-40e6-8ad0-6911a8469bff" d="M166,112.39c0,2.49,1.58,3.42,4,3.59C169.79,114.09,168.47,112.9,166,112.39Z"/><path class="a0600fa6-5953-40e6-8ad0-6911a8469bff" d="M165.94,112.33c-2.43.54-3,2.3-2.62,4.66Q166,116.12,165.94,112.33Z"/><path class="a0600fa6-5953-40e6-8ad0-6911a8469bff" d="M165.71,112.28q-3.37,1.48-5.2-.54a2.11,2.11,0,0,1,.18-.27C162.62,110.39,164.36,110.34,165.71,112.28Z"/><path class="a0600fa6-5953-40e6-8ad0-6911a8469bff" d="M165.78,112.33c1.72-1.8,1.2-3.57-.41-5.33Q163.6,109.22,165.78,112.33Z"/><path class="a0600fa6-5953-40e6-8ad0-6911a8469bff" d="M166,112.38c2.37.73,3.73-.53,4.58-2.76Q167.78,109,166,112.38Z"/><path class="a0600fa6-5953-40e6-8ad0-6911a8469bff" d="M175.32,110.59c-1.55,1.89-.91,3.6.81,5.21Q177.71,113.48,175.32,110.59Z"/><path class="a0600fa6-5953-40e6-8ad0-6911a8469bff" d="M175.33,110.5c-2.2-1.09-3.72-.08-4.91,2C172.17,113.13,173.8,112.48,175.33,110.5Z"/><path class="a0600fa6-5953-40e6-8ad0-6911a8469bff" d="M175.18,110.33c.18-2.44-1.33-3.47-3.67-3.8Q171.57,109.35,175.18,110.33Z"/><path class="a0600fa6-5953-40e6-8ad0-6911a8469bff" d="M175.21,110.41c2.43-.31,3.14-2,3-4.35Q175.46,106.68,175.21,110.41Z"/><path class="a0600fa6-5953-40e6-8ad0-6911a8469bff" d="M175.33,110.57c1.37,2,3.19,1.92,5.23.74C179.38,109.85,177.64,109.61,175.33,110.57Z"/><path class="e2749afb-afab-4005-9be9-bee46a807f92" d="M185,102.35c-1,.41-2.27-.38-2.85-1.78a3.45,3.45,0,0,1-.28-1.33c.54,0,1.08,0,1.62,0,.8,0,1.58,0,2.36.1C186.33,100.62,186,102,185,102.35Z"/><path class="e2749afb-afab-4005-9be9-bee46a807f92" d="M191.43,100.32a3.37,3.37,0,0,1-.28,1.49c-.59,1.38-1.88,2.17-2.87,1.75s-1.32-1.9-.73-3.29a3.37,3.37,0,0,1,.41-.72A28.58,28.58,0,0,1,191.43,100.32Z"/><path class="a0600fa6-5953-40e6-8ad0-6911a8469bff" d="M203.91,110.06c0,1.69,1.13,2.3,2.76,2.37C206.53,111.15,205.6,110.36,203.91,110.06Z"/><path class="a0600fa6-5953-40e6-8ad0-6911a8469bff" d="M203.87,110c-1.64.41-2,1.62-1.7,3.22C203.39,112.81,204,111.73,203.87,110Z"/><path class="a0600fa6-5953-40e6-8ad0-6911a8469bff" d="M203.72,110c-1-1.37-2.25-1.23-3.63-.35Q201.38,111.08,203.72,110Z"/><path class="a0600fa6-5953-40e6-8ad0-6911a8469bff" d="M204.39,109a2.74,2.74,0,0,1-.62,1.06,3.39,3.39,0,0,1-.84-2.6C203.44,107.91,203.92,108.42,204.39,109Z"/><path class="a0600fa6-5953-40e6-8ad0-6911a8469bff" d="M205.31,110.07a2.39,2.39,0,0,1-1.4,0,6,6,0,0,1,.6-1C204.79,109.41,205.05,109.74,205.31,110.07Z"/><ellipse class="a786062f-f314-4d10-9dbc-68353db454f5" cx="194.58" cy="116.4" rx="1.43" ry="1.99" transform="translate(-32.13 112.88) rotate(-30)"/><ellipse class="a786062f-f314-4d10-9dbc-68353db454f5" cx="193.45" cy="117.6" rx="1.43" ry="2.47" transform="translate(67.34 305.62) rotate(-87.45)"/><ellipse class="a786062f-f314-4d10-9dbc-68353db454f5" cx="194.11" cy="118.88" rx="1.99" ry="1.43" transform="translate(-22.82 187.8) rotate(-49.11)"/><path class="f65b86da-8de7-4558-8d3c-0e8a2834722b" d="M181.64,126.66a2.25,2.25,0,0,1,.63.44h-3.63a1.82,1.82,0,0,1,.31-.19c-1.76-.88-2-2.74.57-2.29.66-2.41,2.77-1.72,2.23.24C183.89,124.26,184.43,126.76,181.64,126.66Z"/><path class="be300749-4b20-4890-8066-6a95b911acda" d="M181.1,126.19a.91.91,0,0,1-.55.91h-.7a.91.91,0,1,1,1.25-.91Z"/><path class="b027d052-9217-402c-85c9-30a0a92f4e1d" d="M179,103.3c0,3-3.38,2.76-2.26-.79-1.87,2.18-4.11-.4-2.58-1.69.45-.16.9-.31,1.36-.45s.88-.26,1.33-.36.92-.22,1.38-.31c.75-.15,1.51-.26,2.28-.34a4.72,4.72,0,0,1-.4,1.16C182.92,102.22,181.29,104.68,179,103.3Z"/><path class="eca5c8cb-5024-4638-830d-be27fb004c77" d="M178.9,101a1.21,1.21,0,0,1-2.37-.45,1.14,1.14,0,0,1,.28-.57c.46-.12.92-.22,1.38-.31A1.2,1.2,0,0,1,178.9,101Z"/><path class="a786062f-f314-4d10-9dbc-68353db454f5" d="M198.54,104c.27,2.2-2.29,2.34-1.75-.4-1.45,2.14-3.88-.79-1.07-1.6l0,0c.28.13.56.27.83.42s.83.44,1.23.69c.59.34,1.16.71,1.72,1.1A1.78,1.78,0,0,1,198.54,104Z"/><path class="ae92872b-7214-49e4-80ca-b3c1bc4577cc" d="M197.75,103.1a1,1,0,0,1-.41.06.91.91,0,0,1-.82-.75Q197.15,102.73,197.75,103.1Z"/><ellipse class="a786062f-f314-4d10-9dbc-68353db454f5" cx="183.02" cy="105.51" rx="1.99" ry="1.43" transform="translate(-28.24 105.64) rotate(-30)"/><ellipse class="a786062f-f314-4d10-9dbc-68353db454f5" cx="184.22" cy="106.64" rx="2.47" ry="1.43" transform="translate(69.48 285.92) rotate(-87.45)"/><ellipse class="a786062f-f314-4d10-9dbc-68353db454f5" cx="185.49" cy="105.97" rx="1.43" ry="1.99" transform="translate(-16.05 176.82) rotate(-49.11)"/><ellipse class="ac6faf67-67d3-4b83-9f96-55cc05accbcc" cx="185.48" cy="123.25" rx="2.66" ry="1.3" transform="translate(41.69 293.3) rotate(-83.39)"/><path class="e77b5c33-65f7-4548-8321-9f25fb99c1f5" d="M174.32,261.86c.08,7.63,3.76,13.87,8.76,19.54,53.16-9,79.55-54.44,77.54-122.08C247.2,196.89,173.94,225.25,174.32,261.86Z"/></svg>