<svg id="a68ff738-20c1-4f3f-88f9-0ec204c7e483" data-name="Layer 1" xmlns="http://www.w3.org/2000/svg" viewBox="0 0 300 300"><defs><style>.b2fdb8e6-011a-429a-894f-55e0a27b2603{fill:#a06530;}.b6a78965-d997-4c12-bebf-eb5e56d09fc1{fill:#d8db97;}.be9833bb-9461-4b2d-b97f-9f88b7dfb260{fill:#fff;}.a002e17f-920f-4b18-90c2-12ebbca67dcb{fill:#e5e5a2;opacity:0.5;}</style></defs><path class="b2fdb8e6-011a-429a-894f-55e0a27b2603" d="M257.46,164.86c0,73.79-23.42,116.9-107.46,116.9-70.62,0-107.46-43.11-107.46-116.9a160.54,160.54,0,0,1,10.23-57l-.06,0c10.78-31.07,6.69-60.69-.54-88.6,17.41,23.16,57,43.92,76.71,43.76h42c16.12.16,59.3-20.6,76.7-43.76-8.79,24.79-9.49,52.53-.85,87.32A160.59,160.59,0,0,1,257.46,164.86Z"/><path class="b6a78965-d997-4c12-bebf-eb5e56d09fc1" d="M222.61,263c-33.71,27.89-113.46,25.48-144.15-3.7L113.34,109.4H187Z"/><circle class="be9833bb-9461-4b2d-b97f-9f88b7dfb260" cx="109.15" cy="123.93" r="27.91"/><circle class="be9833bb-9461-4b2d-b97f-9f88b7dfb260" cx="187.03" cy="122.96" r="27.91"/><circle cx="118.59" cy="113.52" r="9.44"/><circle cx="177.59" cy="113.52" r="9.44"/><path class="a002e17f-920f-4b18-90c2-12ebbca67dcb" d="M206.84,215.53c4.15,16.65,8.55,33.92,10.32,44.4-9.91,9.42-32.15,14.45-54.48,19.44,18.84-3.26,37.44-3.47,57.12-17.52A198.39,198.39,0,0,0,206.84,215.53Z"/></svg>