<svg id="ee53de8a-17f4-4786-85c1-bb24e8b25991" data-name="Layer 1" xmlns="http://www.w3.org/2000/svg" viewBox="0 0 500 300"><defs><style>.fd6e063e-7a47-4adb-9bd7-1ddcdb021969{fill:#ffca06;}.f0acc723-6564-4494-9ac0-988cd1c9ed16{fill:#f89a1c;}.b64f87a7-a63e-4471-a378-d456d1f8d060{fill:#f37233;}.f2d59b33-1ccd-4ecf-9eff-2014d1fc339b{fill:#ec8d22;}.b7d29884-960d-4a94-820c-9b1835b0bb93{fill:#000101;}.b17eae57-efa3-4395-88a2-9d615fbbca7b{fill:#ef4823;}.e5744356-193b-42bb-b14c-71860dc086ae{fill:#f4eb3c;}.b8e233ea-8ab6-4862-8591-bd1c4eb229e5{fill:#a03c22;}.e0a6c916-d6d1-40c3-84d7-aa0d04abe61b{fill:#ffc50d;}.bbf31a5a-0863-40cc-92b1-936db147a833{fill:#fed614;}.b243409a-f57b-44e4-af0a-4d61e38855a8{fill:#e78a4f;}.ab535386-91ac-415e-853e-efa866e6ea4d{fill:#fff;}.f412bbed-2cb3-48e2-9ba0-8739ff80fcc7{fill:#d83f31;}.bf604c39-60c6-4022-b510-7888e98ce41c{fill:#ee2c24;}</style></defs><path class="fd6e063e-7a47-4adb-9bd7-1ddcdb021969" d="M384.71,150.52c2.62,32-15.62,54.91-11.33,70.75-12.66-17.28,1-43.29-4.87-66.84Z"/><path class="fd6e063e-7a47-4adb-9bd7-1ddcdb021969" d="M400.6,142.24l-11.33,5.32c3,21.43-5.7,46.08-12.32,64.17C395.67,197.26,405,169.27,400.6,142.24Z"/><path class="fd6e063e-7a47-4adb-9bd7-1ddcdb021969" d="M414.39,132.12l-10.47,7.51c3.36,16.46-1.13,35.26-.41,56.62C410.62,175.37,417.48,154.23,414.39,132.12Z"/><path class="fd6e063e-7a47-4adb-9bd7-1ddcdb021969" d="M431,115.69l-12.62,13c3.42,10.88-2,28.13,2.17,52.07C422.74,165.47,431.29,141.29,431,115.69Z"/><path class="fd6e063e-7a47-4adb-9bd7-1ddcdb021969" d="M373.38,157c-2.14,29.11-12.37,47.72-25.32,58.25,7.19-20.38,14.54-37.92,11.86-56.06Z"/><path class="f0acc723-6564-4494-9ac0-988cd1c9ed16" d="M366.7,154.43c4.73,15.06-3.79,39.66-19.15,46.5,6.2-15.32,9.31-32.26,9.46-44.76Z"/><path class="f0acc723-6564-4494-9ac0-988cd1c9ed16" d="M381,150.52c2.86,16.59,2,31.43-17.81,46.72,5.4-19.08,7.53-27.67,3.55-42.81Z"/><path class="f0acc723-6564-4494-9ac0-988cd1c9ed16" d="M381,150.52l14.58-6.13c3.11,16.37,3.44,34-15.83,47.54C385.21,176.81,383.68,163.59,381,150.52Z"/><path class="f0acc723-6564-4494-9ac0-988cd1c9ed16" d="M395,144.27l15.94-10c2.59,16.85-.94,34.9-12.51,51.85A115.92,115.92,0,0,0,395,144.27Z"/><path class="f0acc723-6564-4494-9ac0-988cd1c9ed16" d="M409.5,134.28l16.23-14.22c-.66,19.19-3.48,37.39-12.72,57.62C412,160.61,415.5,145.21,409.5,134.28Z"/><path class="f0acc723-6564-4494-9ac0-988cd1c9ed16" d="M449.79,88.36c-14.71,35.08-22.2,65.05-19.32,85.52-9-14.89-4.1-36.08-6.84-52.51Z"/><path class="b64f87a7-a63e-4471-a378-d456d1f8d060" d="M356.2,139.74c30.65,6.26,59.51-20,94.07-52.21-24.9,44.2-54.26,62.9-93.26,68.64C356.87,151.14,356.53,145.62,356.2,139.74Z"/><path class="f0acc723-6564-4494-9ac0-988cd1c9ed16" d="M334.56,87.57c-14.71,35.08-22.21,65-19.33,85.51-9-14.89-4.1-36.07-6.84-52.51Z"/><path class="fd6e063e-7a47-4adb-9bd7-1ddcdb021969" d="M125,153.48c-2.62,32,15.62,54.91,11.33,70.75,12.66-17.28-1-43.29,4.87-66.84Z"/><path class="fd6e063e-7a47-4adb-9bd7-1ddcdb021969" d="M109.07,145.2l11.33,5.33c-3,21.42,5.7,46.07,12.32,64.16C114,200.22,104.69,172.24,109.07,145.2Z"/><path class="fd6e063e-7a47-4adb-9bd7-1ddcdb021969" d="M95.28,135.08l10.47,7.52c-3.36,16.45,1.14,35.25.42,56.61C99.05,178.33,92.2,157.2,95.28,135.08Z"/><path class="fd6e063e-7a47-4adb-9bd7-1ddcdb021969" d="M78.65,118.65l12.62,13c-3.42,10.87,2,28.12-2.17,52.06C86.93,168.43,78.38,144.26,78.65,118.65Z"/><path class="fd6e063e-7a47-4adb-9bd7-1ddcdb021969" d="M136.29,160c2.15,29.12,12.38,47.73,25.32,58.25-7.18-20.38-14.54-37.92-11.86-56.06Z"/><path class="f0acc723-6564-4494-9ac0-988cd1c9ed16" d="M143,157.39c-4.74,15.06,3.78,39.66,19.14,46.5-6.19-15.31-9.3-32.25-9.46-44.76Z"/><path class="f0acc723-6564-4494-9ac0-988cd1c9ed16" d="M128.71,153.48c-2.85,16.6-2,31.43,17.81,46.72-5.4-19.08-7.53-27.66-3.54-42.81Z"/><path class="f0acc723-6564-4494-9ac0-988cd1c9ed16" d="M128.71,153.48l-14.58-6.13c-3.1,16.37-3.44,34,15.83,47.54C124.47,179.77,126,166.55,128.71,153.48Z"/><path class="f0acc723-6564-4494-9ac0-988cd1c9ed16" d="M114.67,147.23l-15.94-10c-2.58,16.85,1,34.91,12.51,51.86A116,116,0,0,1,114.67,147.23Z"/><path class="f0acc723-6564-4494-9ac0-988cd1c9ed16" d="M100.17,137.24,84,123c.65,19.18,3.48,37.38,12.71,57.61C97.66,163.57,94.17,148.17,100.17,137.24Z"/><path class="f0acc723-6564-4494-9ac0-988cd1c9ed16" d="M59.88,91.33c14.71,35.08,22.2,65,19.32,85.51,9-14.89,4.11-36.08,6.84-52.51Z"/><path class="b64f87a7-a63e-4471-a378-d456d1f8d060" d="M153.47,142.7C122.83,149,94,122.74,59.4,90.49c24.9,44.21,54.26,62.91,93.26,68.64C152.81,154.11,153.14,148.59,153.47,142.7Z"/><path class="f2d59b33-1ccd-4ecf-9eff-2014d1fc339b" d="M348.85,90.12c2.38-21.09,5.32-41.39,10-59.18-5.58,7.28-14.09,16.87-14,24.15C346.48,72.37,346.05,80.27,348.85,90.12Z"/><path class="f0acc723-6564-4494-9ac0-988cd1c9ed16" d="M352.65,106.51c-.47-21.45.12-37,10-54.12-6.77,3.93-17.82,5.94-16.19,17.46C347.55,84.81,349.46,97.45,352.65,106.51Z"/><path class="f2d59b33-1ccd-4ecf-9eff-2014d1fc339b" d="M164,90.12c-2.39-21.09-5.33-41.39-10-59.18,5.57,7.28,14.08,16.87,14,24.15C166.37,72.37,166.79,80.27,164,90.12Z"/><path class="f0acc723-6564-4494-9ac0-988cd1c9ed16" d="M160.19,106.51c.47-21.45-.11-37-10-54.12,6.76,3.93,17.82,5.94,16.19,17.46C165.29,84.81,163.39,97.45,160.19,106.51Z"/><path class="b7d29884-960d-4a94-820c-9b1835b0bb93" d="M228.87,63.92C213,40.48,216.76,24.26,216.81,10.48c31.85,16.7,37.9,42.13,32.61,71.41Z"/><path class="b7d29884-960d-4a94-820c-9b1835b0bb93" d="M284.65,63.92c15.91-23.44,12.12-39.66,12.07-53.44-31.85,16.7-37.91,42.13-32.62,71.41Z"/><path class="b17eae57-efa3-4395-88a2-9d615fbbca7b" d="M363.68,167.29a244,244,0,0,1-2.38,36.08,118.78,118.78,0,0,1-10.76,31.07q-1,2-2.14,3.9a42.49,42.49,0,0,0-26.07-11.11c-.59,0-1.18-.08-1.77-.1l-1.77,0-1.68,0-.94,0-.58,0c-.41,0-.81.06-1.22.1s-1,.1-1.44.16l-1.14.15c-.53.08-1.05.17-1.57.27-.33.06-.66.12-1,.2-.54.11-1.09.23-1.62.36l-1.18.32-1.32.38c-.8.25-1.59.52-2.36.82s-1.59.62-2.36,1l-1.14.53-1.09.54,0,0-1.1.59c-.36.2-.72.4-1.07.62s-.71.42-1,.65-.69.44-1,.68-.82.56-1.22.86-.54.4-.8.61c-.53.41-1,.83-1.54,1.27l-.74.66-.72.68c-.23.23-.47.46-.7.7-.43.43-.85.89-1.26,1.35s-.79.92-1.16,1.4c-.16.2-.32.4-.47.61s-.32.42-.46.63a31.37,31.37,0,0,0-2.3,3.68l-.39.75c-.13.26-.25.51-.36.77l-.33.72c-.18.42-.35.85-.51,1.27s-.25.67-.36,1a1.21,1.21,0,0,0-.05.14c-.13.38-.25.76-.35,1.14a.17.17,0,0,0,0,.05c-.1.36-.2.73-.29,1.09,0,.15-.07.3-.1.45s-.13.56-.19.84c-.11.57-.21,1.15-.28,1.73-.06.36-.1.73-.13,1.1a1.22,1.22,0,0,0,0,.26q-.06.65-.09,1.29v0c0,.43,0,.86,0,1.3a30.6,30.6,0,0,0,8,20.33c-1.14.24-2.32.46-3.5.67q-2.93.54-6,.95h-.12q-3.84.53-7.84.82c-.27,0-.53,0-.81.06-1.75.13-3.53.23-5.33.29-.67,0-1.34.05-2,.06l-1.91,0c-.54,0-1.08,0-1.63,0h-1.65a143.7,143.7,0,0,1-29.73-2.92,30.6,30.6,0,0,0,8-20.33c0-18.69-17.81-33.84-39.78-33.84l-1.77,0a42.78,42.78,0,0,0-27.84,11.21c-10.81-18.63-16.31-42.55-16.31-71.05a160.63,160.63,0,0,1,10.23-57l-.06,0c10.78-31.07,6.69-60.7-.54-88.6,17.41,23.16,57,43.92,76.71,43.75h43.27c18.95.16,56.19-19,74.53-41-7.9,24.09-8.24,51.06.08,84.57A160.55,160.55,0,0,1,363.68,167.29Z"/><path class="b17eae57-efa3-4395-88a2-9d615fbbca7b" d="M352.9,24.52c-18.34,22-55.58,41.16-74.53,41h-1c16.27,0,59.16-20.68,76.5-43.75C353.51,22.68,353.19,23.6,352.9,24.52Z"/><path class="e5744356-193b-42bb-b14c-71860dc086ae" d="M319.81,227.12c-.34,0-.68,0-1,0a45.19,45.19,0,0,0-5.86.37,43,43,0,0,0-19,7.09l-.06,0-.34.24a35.55,35.55,0,0,0-10.56,11.43c-.14.25-.28.5-.41.75l-.39.75a29.77,29.77,0,0,0-3,10.46s0,.07,0,.11q-.12,1.29-.12,2.61a30.6,30.6,0,0,0,8,20.33c-3.41.71-7,1.3-10.79,1.77h0q-3.24.4-6.61.68c-.27,0-.53,0-.81.06-4,.32-8.09.5-12.25.54h-.72a160.1,160.1,0,0,1-29.3-3,30.6,30.6,0,0,0,8-20.33c0-18.69-17.81-33.84-39.78-33.84l-1.77,0L211,151.24c0-11.32,22.34-16.92,44.82-17.19H257c18.71.14,37.48,4,43.52,11.7a6.89,6.89,0,0,1,.95,3.47Z"/><path class="e5744356-193b-42bb-b14c-71860dc086ae" d="M184.67,261.73c11.32,9.44,25.28,16,41.82,19.54-16.89-3.51-32-10.15-41.82-19.53Z"/><path class="e5744356-193b-42bb-b14c-71860dc086ae" d="M257,134c19.63-.08,39.07,3.9,43.52,11.7C294.47,138,275.7,134.18,257,134Z"/><path class="b8e233ea-8ab6-4862-8591-bd1c4eb229e5" d="M234.46,260.94a30.6,30.6,0,0,1-8,20.33,106.58,106.58,0,0,1-19.37-6c8.26-4.6,15.71-10.49,20.32-20.51a38.76,38.76,0,0,0-18.56-.24,40.46,40.46,0,0,0,4.18-20,39.11,39.11,0,0,0-19.57,11.23,39.54,39.54,0,0,0-5.13-15.08,39.85,39.85,0,0,0-13,22,89.17,89.17,0,0,1-10.26-14.31,42.78,42.78,0,0,1,27.84-11.21l1.77,0C216.65,227.1,234.46,242.25,234.46,260.94Z"/><polygon class="e0a6c916-d6d1-40c3-84d7-aa0d04abe61b" points="253.99 196.76 234.41 152.83 254.65 123.93 274.36 152.47 253.99 196.76"/><path class="f2d59b33-1ccd-4ecf-9eff-2014d1fc339b" d="M215.06,64.68c-27.64-6.22-36-20.65-45.36-30.74,34.66-9.6,56.47,4.81,72.64,29.79Z"/><path class="f2d59b33-1ccd-4ecf-9eff-2014d1fc339b" d="M300.68,64.68c27.63-6.22,36-20.65,45.35-30.74-34.66-9.6-56.47,4.81-72.63,29.79Z"/><path class="f0acc723-6564-4494-9ac0-988cd1c9ed16" d="M254.65,123.93C228.28,96.43,212.89,67,206,36c15.1,8.73,26.08,18.38,36.36,27.72,1.92-14.31,8.11-28.38,14.37-40.32C263,36,269.46,49.69,270.25,62.29c10.27-9.26,20.9-18.2,37.61-24.84C296.64,73.59,279.87,100.76,254.65,123.93Z"/><path class="f2d59b33-1ccd-4ecf-9eff-2014d1fc339b" d="M227.44,254.76c-4.61,10-12.06,15.91-20.32,20.51a90,90,0,0,1-8.94-4.32q-3-1.67-5.85-3.55c-1.06-.68-2.09-1.4-3.11-2.14q-2.34-1.68-4.55-3.53c-.52-.43-1-.86-1.53-1.31a84.22,84.22,0,0,1-7.81-7.77,39.85,39.85,0,0,1,13-22,39.54,39.54,0,0,1,5.13,15.08,39.11,39.11,0,0,1,19.57-11.23,40.46,40.46,0,0,1-4.18,20A38.76,38.76,0,0,1,227.44,254.76Z"/><path class="e0a6c916-d6d1-40c3-84d7-aa0d04abe61b" d="M226.49,281.27a85.57,85.57,0,0,0,10.8,1.77c12.4-21.21,9.78-39.34-13.67-55.94-3.48-2.45-10.8-4.4-16.38-5.33-.93-4.86,1.89-16.92,4.9-17.91,22.27-2.88,19.9,16.5,5.27,11.34,16,13.8,31.5-19.35-6.39-18.44-9.18.62-10.78,20.39-10.64,30.68,6,1,10,1.63,19.25,7.15C232.47,243.71,241.72,260.91,226.49,281.27Z"/><path class="e5744356-193b-42bb-b14c-71860dc086ae" d="M256.45,134h-.66v0Z"/><path class="e5744356-193b-42bb-b14c-71860dc086ae" d="M244.35,283.06h0Z"/><path class="e5744356-193b-42bb-b14c-71860dc086ae" d="M320.56,227.13c-.25,0-.5,0-.75,0l-18.35-77.91a6.89,6.89,0,0,0-.95-3.47,8.85,8.85,0,0,1,2,5.5Z"/><path class="b8e233ea-8ab6-4862-8591-bd1c4eb229e5" d="M348.4,238.34a89.17,89.17,0,0,1-10.26,14.31,39.85,39.85,0,0,0-13-22A39.54,39.54,0,0,0,320,245.72a39.11,39.11,0,0,0-19.57-11.23,40.46,40.46,0,0,0,4.18,20,38.76,38.76,0,0,0-18.56.24c4.61,10,12.06,15.91,20.32,20.51a106.58,106.58,0,0,1-19.37,6,30.6,30.6,0,0,1-8-20.33c0-.44,0-.87,0-1.3v0q0-.64.09-1.29a1.22,1.22,0,0,1,0-.26c0-.37.07-.74.13-1.1.07-.58.17-1.16.28-1.73.06-.28.12-.56.19-.84s.06-.3.1-.45c.09-.36.19-.73.29-1.09a.17.17,0,0,1,0-.05c.11-.38.22-.76.35-1.14a1.21,1.21,0,0,1,.05-.14c.11-.34.23-.67.36-1s.33-.85.51-1.27l.33-.72c.24-.51.49-1,.75-1.52a31.37,31.37,0,0,1,2.3-3.68c.14-.21.3-.42.46-.63s.31-.41.47-.61c.37-.48.76-.94,1.16-1.4s.83-.91,1.26-1.35c.23-.24.47-.47.7-.7l.72-.68.74-.66c.5-.44,1-.86,1.54-1.27.26-.21.53-.41.8-.61s.8-.59,1.22-.86l1-.68,1-.65,1.07-.62,1.1-.59,0,0,1.09-.54,1.14-.53c.77-.34,1.56-.67,2.36-1s1.56-.56,2.36-.82l1.32-.38,1.18-.32c.53-.13,1.08-.25,1.62-.36l1-.2c.52-.1,1-.19,1.57-.27l1.14-.15c.48-.06,1-.12,1.44-.16l1.22-.1.58,0,.94,0,1.68,0,1.77,0c.59,0,1.18.06,1.77.1A42.49,42.49,0,0,1,348.4,238.34Z"/><path class="f2d59b33-1ccd-4ecf-9eff-2014d1fc339b" d="M286,254.76c4.61,10,12.06,15.91,20.32,20.51a90,90,0,0,0,8.94-4.32q3-1.67,5.85-3.55c1.06-.68,2.09-1.4,3.11-2.14q2.34-1.68,4.55-3.53c.52-.43,1-.86,1.53-1.31a84.22,84.22,0,0,0,7.81-7.77,39.85,39.85,0,0,0-13-22A39.54,39.54,0,0,0,320,245.72a39.11,39.11,0,0,0-19.57-11.23,40.46,40.46,0,0,0,4.18,20A38.76,38.76,0,0,0,286,254.76Z"/><path class="e0a6c916-d6d1-40c3-84d7-aa0d04abe61b" d="M287,281.27a85.57,85.57,0,0,1-10.8,1.77c-12.41-21.21-9.79-39.34,13.67-55.94,3.48-2.45,10.79-4.4,16.38-5.33.93-4.86-1.89-16.92-4.91-17.91-22.27-2.88-19.9,16.5-5.26,11.34-16,13.8-31.5-19.35,6.39-18.44,9.18.62,10.77,20.39,10.63,30.68-5.95,1-10,1.63-19.25,7.15C281,243.71,271.74,260.91,287,281.27Z"/><path class="bbf31a5a-0863-40cc-92b1-936db147a833" d="M203.73,59.41C193.26,54,183.08,47.19,173.85,35.83c14.41-4.59,24.15-3,32.13-1.14-11.3-.7-24.28-1.53-28.53,1.68C181.54,44.4,192.88,52.26,203.73,59.41Z"/><path class="bbf31a5a-0863-40cc-92b1-936db147a833" d="M209.85,41.53c3.4,22.15,23.92,53.53,43.2,77.52-17.83-26.22-40.2-57.84-40.92-74.64a173.59,173.59,0,0,1,27,20.27C231.3,55.61,221.11,48.2,209.85,41.53Z"/><path class="bbf31a5a-0863-40cc-92b1-936db147a833" d="M245.31,63c3.05-13.73,6.52-25.9,11.61-32.07C261.73,37.21,265,49,268.17,63c-4-13.79-7.94-25.58-11.25-29.34C252.29,38.94,248.76,50.73,245.31,63Z"/><path class="bbf31a5a-0863-40cc-92b1-936db147a833" d="M271.77,63c11.37-9.47,22.48-17.87,32.4-21.48-4.83,22-25.31,49.27-46.08,76.68,18.84-26.76,38.6-54,42.12-72C293.49,48.14,282.71,55.47,271.77,63Z"/><path class="bbf31a5a-0863-40cc-92b1-936db147a833" d="M313.89,33.67c9.33-.77,18.43-1.69,29.88.72-7.6,11.4-21.77,20.55-32.58,26.14C323.41,53,336,42.7,341.34,35.11,335.14,34,324.38,33.85,313.89,33.67Z"/><path class="bbf31a5a-0863-40cc-92b1-936db147a833" d="M220.77,37.57c-1.77-.35-3.48-22.43-1.32-22.44,14.09,5.55,25.27,21.22,26.4,31.85-4.27-13.72-15-25.21-24.84-28.13C219.68,22.72,220.09,29.89,220.77,37.57Z"/><path class="bbf31a5a-0863-40cc-92b1-936db147a833" d="M294.45,37.93c1.07-8.9,1.55-17.16.48-23.76-18.47,10.63-22.56,21-27.36,30.24,6.41-10.7,14.09-21.83,25.68-25.8C294.25,23.89,294.34,30.93,294.45,37.93Z"/><path class="b243409a-f57b-44e4-af0a-4d61e38855a8" d="M199,121c-7.05,12.66,1.17,24.25,8.69,30.2l-19.42,76.35c1.2-.16,2.8-.29,4.64-.41,7.14-29.9,16.88-70.76,18.46-77.32C200.62,141.72,197.12,131.83,199,121Z"/><path class="b243409a-f57b-44e4-af0a-4d61e38855a8" d="M309.72,121.2c5.13,13.33,1.68,20.29-4,26.53l19.52,79.77c-1.33-.15-3-.23-4.69-.37-7.15-29.9-17.86-73.44-19.44-80C309.21,139.33,310.65,132,309.72,121.2Z"/><circle class="ab535386-91ac-415e-853e-efa866e6ea4d" cx="282.34" cy="126.17" r="27.91"/><path class="f412bbed-2cb3-48e2-9ba0-8739ff80fcc7" d="M309.72,120.89a27.9,27.9,0,0,0-55.33,4.81C254.39,125.85,310,122.59,309.72,120.89Z"/><path class="bf604c39-60c6-4022-b510-7888e98ce41c" d="M253.76,125.64c1.7-5.1,7.5-9.57,16.22-13.39-3,2.51-4.58,4.85-1.7,6.7,4.42-.61,9.78-3.27,14.71-7.83-2.06,2.69-3.75,5.14-3,6,7.69-.34,13.29-3.93,17.54-9.62-1.67,3.07-3.08,6-2.26,7.35,8-2.59,14.17-6.87,18.29-13-1.85,3.44-3.48,6.77-1.7,8.49,5.59-.85,10.55-6,15.28-12.83-3.89,11-8.74,21.35-22.44,25.27A155,155,0,0,1,253.76,125.64Z"/><path d="M300.48,135.45c-4.57-3.6-9.88-6.35-15.82-6.35s-11.26,2.75-15.83,6.35a2,2,0,0,0,0,2.83,2.05,2.05,0,0,0,2.83,0c3.72-2.93,8.18-5.18,13-5.18s9.28,2.25,13,5.18a2.06,2.06,0,0,0,2.83,0,2,2,0,0,0,0-2.83Z"/><circle class="ab535386-91ac-415e-853e-efa866e6ea4d" cx="226.55" cy="126.17" r="27.91"/><path class="f412bbed-2cb3-48e2-9ba0-8739ff80fcc7" d="M199.18,120.89a27.9,27.9,0,0,1,55.33,4.81C254.51,125.85,198.86,122.59,199.18,120.89Z"/><path class="bf604c39-60c6-4022-b510-7888e98ce41c" d="M255.13,125.64c-1.69-5.1-7.5-9.57-16.22-13.39,3,2.51,4.58,4.85,1.7,6.7-4.42-.61-9.78-3.27-14.71-7.83,2.06,2.69,3.75,5.14,3,6-7.69-.34-13.29-3.93-17.54-9.62,1.67,3.07,3.08,6,2.26,7.35-8-2.59-14.17-6.87-18.29-13,1.85,3.44,3.49,6.77,1.7,8.49-5.58-.85-10.54-6-15.28-12.83,3.89,11,8.74,21.35,22.45,25.27A154.94,154.94,0,0,0,255.13,125.64Z"/><path d="M211.06,138.07c3.72-2.93,8.18-5.17,13-5.17s9.28,2.24,13,5.17a2.06,2.06,0,0,0,2.83,0,2,2,0,0,0,0-2.83c-4.56-3.6-9.88-6.34-15.82-6.34s-11.26,2.74-15.82,6.34a2,2,0,0,0,0,2.83,2,2,0,0,0,2.82,0Z"/></svg>