<svg xmlns="http://www.w3.org/2000/svg" width="666.667" height="666.667" fill-rule="evenodd" clip-rule="evenodd" image-rendering="optimizeQuality" shape-rendering="geometricPrecision" text-rendering="geometricPrecision" viewBox="0 0 17639 17639"><rect width="15476" height="15381" x="1082" y="1129" fill="#ff4a19"/><rect width="12882" height="12803" x="2379" y="2418" fill="#260600"/><path fill="#ff4a19" d="M7741 10633l501 1659c26 98 77 122 146 121l1283 0c99 0 106-29 91-95l-2119-7068c-4-13-14-23-34-22l-1777-5c-70 0-71 36-65 104 22 246 10 384-42 577l-1876 6417c-20 61-15 92 65 93l1211-1c128-5 135-39 157-103l420-1677 2039 0zm-259-1290l-1471 0 713-2884 758 2884zM10133 12354l0-53 0-11 0-147 9-3816-6-136-3-75-44-212c9-4 18-7 27-11 17-6 34-12 51-19 1493-551 3715-770 3631 1427-1 13 0 37-1 50l0 2717 0 214 0 20c-3 65-39 113-128 114l-20 0-820 0c-72 1-134-7-136-110 0-1 0-1 0-2 0-48 0-109 0-181 0-802 1-2982-1-3022-25-700-917-778-1472-551l-17 3605 0 151c-2 67-9 108-128 109l-867 0c-40 0-77 1-75-61z"/></svg>