<svg xmlns="http://www.w3.org/2000/svg" width="666.667" height="666.667" fill-rule="evenodd" clip-rule="evenodd" image-rendering="optimizeQuality" shape-rendering="geometricPrecision" text-rendering="geometricPrecision" viewBox="0 0 17639 17639"><rect width="15475" height="15381" x="1082" y="1129" fill="#36e7d6"/><rect width="12881" height="12803" x="2379" y="2418" fill="#252653"/><path fill="#36e7d6" d="M7529 10603l505 1674c27 98 78 123 148 122l1295 0c100 0 107-29 91-96l-2138-7132c-4-14-14-23-34-23l-1793-5c-70 0-72 37-66 105 22 249 10 387-42 582l-1894 6477c-20 61-15 92 66 92l1222-1c129-4 136-38 158-104l425-1692 2057 1zm-261-1303l-1485 0 720-2910 765 2910zM9997 7222l1167 2c94 3 108 42 107 151l-5 3264c36 1030 1342 547 1343 236l6-3514c0-105 33-146 152-147l1095 1c119-2 128 65 128 172l8 4218c1 473 155 787-86 787l-886 0c-269 0-292-170-293-415 0 0-4 3-12 9-349 315-846 513-1325 510-1289-9-1547-1014-1498-2013l-9-3138c0-99 12-123 108-123z"/></svg>