<svg id="Layer_1" data-name="Layer 1" xmlns="http://www.w3.org/2000/svg" viewBox="0 0 67 67"><defs><style>.cls-1{fill:#231f20;}</style></defs><rect class="cls-1" x="22.39" y="24.06" width="6.67" height="6.19"/><rect class="cls-1" x="37.31" y="24.06" width="6.82" height="6.19"/><path class="cls-1" d="M16.6,55.49v-.06l-.07.25h.76v-.19Zm1.13-2v.25h.44v-.25Zm0,.85v.25h.44v-.25Zm.94-1.92v.19h.63v2.86h-.66v.19h.82l0-3.24Zm1.89-.22v.47H21v-.47Zm0,1.7v.47H21v-.47Zm0,1.7c0,.38,0,.73-.09,1.07l.31.06a.17.17,0,0,0,.19-.19v-.94Zm0,0c0,.38,0,.73-.09,1.07l.31.06a.17.17,0,0,0,.19-.19v-.94Zm0-1.7v.47H21v-.47Zm0-1.7v.47H21v-.47Zm-1.89.22v.19h.63v2.86h-.66v.19h.82l0-3.24Zm-.94,1.92v.25h.44v-.25Zm0-.85v.25h.44v-.25Zm-1.13,2v-.06l-.07.25h.76v-.19Zm0,0v-.06l-.07.25h.76v-.19Zm1.13-2v.25h.44v-.25Zm0,.85v.25h.44v-.25Zm.94-1.92v.19h.63v2.86h-.66v.19h.82l0-3.24Zm1.89-.22v.47H21v-.47Zm0,1.7v.47H21v-.47Zm0,1.7c0,.38,0,.73-.09,1.07l.31.06a.17.17,0,0,0,.19-.19v-.94Zm0,0c0,.38,0,.73-.09,1.07l.31.06a.17.17,0,0,0,.19-.19v-.94Zm0-1.7v.47H21v-.47Zm0-1.7v.47H21v-.47Zm-1.89.22v.19h.63v2.86h-.66v.19h.82l0-3.24Zm-.94,1.92v.25h.44v-.25Zm0-.85v.25h.44v-.25Zm-1.13,2v-.06l-.07.25h.76v-.19Zm0,0v-.06l-.07.25h.76v-.19Zm1.13-2v.25h.44v-.25Zm0,.85v.25h.44v-.25Zm.94-1.92v.19h.63v2.86h-.66v.19h.82l0-3.24Zm1.89-.22v.47H21v-.47Zm0,1.7v.47H21v-.47Zm0,1.7c0,.38,0,.73-.09,1.07l.31.06a.17.17,0,0,0,.19-.19v-.94Zm19.3-.25v.34h.41v-.34Zm0,1.32v.38h.41v-.38Zm1.54-1.32v.34h.41v-.34Zm0,1.32v.38h.41v-.38Zm0,0v.38h.41v-.38Zm0-1.32v.34h.41v-.34Zm-1.54,1.32v.38h.41v-.38Zm0-1.32v.34h.41v-.34Zm-19.3.25c0,.38,0,.73-.09,1.07l.31.06a.17.17,0,0,0,.19-.19v-.94Zm0-1.7v.47H21v-.47Zm0-1.7v.47H21v-.47Zm-1.89.22v.19h.63v2.86h-.66v.19h.82l0-3.24Zm-.94,1.92v.25h.44v-.25Zm0-.85v.25h.44v-.25Zm-1.13,2v-.06l-.07.25h.76v-.19Zm0,0v-.06l-.07.25h.76v-.19Zm1.13-2v.25h.44v-.25Zm0,.85v.25h.44v-.25Zm.94-1.92v.19h.63v2.86h-.66v.19h.82l0-3.24Zm1.89-.22v.47H21v-.47Zm0,1.7v.47H21v-.47Zm0,1.7c0,.38,0,.73-.09,1.07l.31.06a.17.17,0,0,0,.19-.19v-.94Zm19.3-.25v.34h.41v-.34Zm0,1.32v.38h.41v-.38Zm.25-3.84v.22h1.42v-.22Zm1.29,2.52v.34h.41v-.34Zm0,1.32v.38h.41v-.38Zm-1.29-3.84v.22h1.42v-.22Zm1.29,4.22h.41v-.38H41.4Zm0-1.7v.34h.41v-.34Zm-1.54,1.7h.41v-.38h-.41Zm0-1.36h.41v-.34h-.41Zm-19.39,1,.31.06a.17.17,0,0,0,.19-.19v-.94h-.41C20.54,56,20.51,56.35,20.47,56.69Zm.09-2.3H21v-.47h-.41Zm0-2.17v.47H21v-.47Zm-1.89.41h.63v2.86h-.66v.19h.82l0-3.24h-.82Zm-.94,2h.44v-.25h-.44Zm0-.85h.44v-.25h-.44ZM16.6,55.43l-.07.25h.76v-.19H16.6ZM60.58,0H6.42A6.41,6.41,0,0,0,0,6.42V60.58A6.41,6.41,0,0,0,6.42,67H60.58A6.41,6.41,0,0,0,67,60.58V6.42A6.41,6.41,0,0,0,60.58,0ZM22.08,57.44a.67.67,0,0,1-.76.76h-.25l-.63-1.45A6.94,6.94,0,0,1,20,58.29l-1.1-1a1.19,1.19,0,0,0,.15-.32h-.44v1.23H17.26V56.94h-1v-.53l-.44,1.66-1.66-.56a13.1,13.1,0,0,0,1.07-3.06l1.29.67v-.54l-2.15-.35.32-1.76,1.83.44V52.6h.72v-.19h-.41l0,.16-2.33-.41.28-1.74,2.36.54,0,.16h.16v-.63h1.35v.63h.82v-.35h2.62Zm8.57.76H29V54.52l-.48.25a8.17,8.17,0,0,0-.31-.76v4.06H26.78V54.74l-.41.22c-.08-.19-.18-.39-.28-.6a6.87,6.87,0,0,1-.28,1.7,4.8,4.8,0,0,1-1.52,2.17L23.1,56.91a3.42,3.42,0,0,0,1.29-1.29,2,2,0,0,0,.17-.57l-1.43-.53a10.55,10.55,0,0,0,.19-2.36l1.35.41V50.36h1.45V52.5l.35-.16c.08.15.17.34.28.57V50.46h1.48v1.95l.44-.19c.13.23.24.45.35.66V50.36h1.63ZM32.44,58H31.32L34,50.38H35.1Zm10.63.29H38.6V55.68l-.32.41-.37-.38v2.55H36.46V56l-.35.28-.53-1.64A4.33,4.33,0,0,0,37,53H35.76V51.56h.73c-.09-.27-.17-.56-.25-.85l1.41-.32c.15.51.26.9.32,1.17h.53V53a10.44,10.44,0,0,1-.41,1l.41.29a.29.29,0,0,0,.1.06V54.2h4.47ZM38.79,54V51.9h4.09V54Zm4.34-2.33h-4.5V50.52h4.5ZM52,58.07A26.71,26.71,0,0,1,47.24,58a3.86,3.86,0,0,1-1.32-.54,7.9,7.9,0,0,1-.7.82L44.34,57c.23-.26.43-.5.6-.73a9.47,9.47,0,0,1-.44-.85l.88-.69a1.74,1.74,0,0,1,.22.38,3.55,3.55,0,0,0,.16-.66h-1V53.16l.79-1.1h-.85v-1.7h2.42v1.7l-.79,1.07h.85A8.1,8.1,0,0,1,46.77,56l-.13.29a2.23,2.23,0,0,0,.73.31c.35,0,.76.08,1.22.1v-.35H47.24v-1h1.35v-.22H47.46v-.82h1.13V54H47.4v-.75h1.19V53H47.21V51.87h1.38v-.28H47.4v-.76h1.19v-.47H50v.47h1.61v1h.41V53h-.41v1H50v.22h1.64v.82H50v.22h1.83v1H50v.35l2.17,0Zm.2-19.73H37.31V49.45H29.06V38.34H14.3V16H29.06V9.78h8.25V16H52.22ZM50.42,53H50v.28h.38Zm0-1.42H50v.28h.38Zm-8.61,5.1H41.4v.38h.41Zm0-1.32H41.4v.34h.41Zm-1.7-2.3h1.42v-.22H40.11Zm.16,3.62h-.41v.38h.41Zm0-1.32h-.41v.34h.41ZM21,56.56v-.94h-.41c0,.38,0,.73-.09,1.07l.31.06A.17.17,0,0,0,21,56.56Zm0-2.64h-.41v.47H21Zm0-1.7h-.41v.47H21Zm-2.3.41h.63v2.86h-.66v.19h.82l0-3.24h-.82Zm-.94,2h.44v-.25h-.44Zm0-.85h.44v-.25h-.44ZM16.6,55.43l-.07.25h.76v-.19H16.6Zm0,.06v-.06l-.07.25h.76v-.19Zm1.13-2v.25h.44v-.25Zm0,.85v.25h.44v-.25Zm.94-1.92v.19h.63v2.86h-.66v.19h.82l0-3.24Zm1.89-.22v.47H21v-.47Zm0,1.7v.47H21v-.47Zm0,1.7c0,.38,0,.73-.09,1.07l.31.06a.17.17,0,0,0,.19-.19v-.94Zm19.3-.25v.34h.41v-.34Zm0,1.32v.38h.41v-.38Zm1.54-1.32v.34h.41v-.34Zm0,1.32v.38h.41v-.38Zm-1.29-3.84v.22h1.42v-.22Zm1.29,3.84v.38h.41v-.38Zm0-1.32v.34h.41v-.34Zm-1.29-2.52v.22h1.42v-.22Zm-.25,3.84v.38h.41v-.38Zm0-1.32v.34h.41v-.34Zm-19.3.25c0,.38,0,.73-.09,1.07l.31.06a.17.17,0,0,0,.19-.19v-.94Zm0-1.7v.47H21v-.47Zm0-1.7v.47H21v-.47Zm-1.89.22v.19h.63v2.86h-.66v.19h.82l0-3.24Zm-.94,1.92v.25h.44v-.25Zm0-.85v.25h.44v-.25Zm-1.13,2v-.06l-.07.25h.76v-.19Zm0,0v-.06l-.07.25h.76v-.19Zm1.13-2v.25h.44v-.25Zm0,.85v.25h.44v-.25Zm.94-1.92v.19h.63v2.86h-.66v.19h.82l0-3.24Zm1.89-.22v.47H21v-.47Zm0,1.7v.47H21v-.47Zm0,1.7c0,.38,0,.73-.09,1.07l.31.06a.17.17,0,0,0,.19-.19v-.94Zm0,0c0,.38,0,.73-.09,1.07l.31.06a.17.17,0,0,0,.19-.19v-.94Zm0-1.7v.47H21v-.47Zm0-1.7v.47H21v-.47Zm-1.89.22v.19h.63v2.86h-.66v.19h.82l0-3.24Zm-.94,1.92v.25h.44v-.25Zm0-.85v.25h.44v-.25Zm-1.13,2v-.06l-.07.25h.76v-.19Zm0,0v-.06l-.07.25h.76v-.19Zm1.13-2v.25h.44v-.25Zm0,.85v.25h.44v-.25Zm.94-1.92v.19h.63v2.86h-.66v.19h.82l0-3.24Zm1.89-.22v.47H21v-.47Zm0,1.7v.47H21v-.47Zm0,1.7c0,.38,0,.73-.09,1.07l.31.06a.17.17,0,0,0,.19-.19v-.94Zm0,0c0,.38,0,.73-.09,1.07l.31.06a.17.17,0,0,0,.19-.19v-.94Zm0-1.7v.47H21v-.47Zm0-1.7v.47H21v-.47Zm-1.89.22v.19h.63v2.86h-.66v.19h.82l0-3.24Zm-.94,1.92v.25h.44v-.25Zm0-.85v.25h.44v-.25Zm-1.13,2v-.06l-.07.25h.76v-.19Zm0,0v-.06l-.07.25h.76v-.19Zm1.13-2v.25h.44v-.25Zm0,.85v.25h.44v-.25Zm.94-1.92v.19h.63v2.86h-.66v.19h.82l0-3.24Zm1.89-.22v.47H21v-.47Zm0,1.7v.47H21v-.47Zm0,1.7c0,.38,0,.73-.09,1.07l.31.06a.17.17,0,0,0,.19-.19v-.94Zm0,0c0,.38,0,.73-.09,1.07l.31.06a.17.17,0,0,0,.19-.19v-.94Zm0-1.7v.47H21v-.47Zm0-1.7v.47H21v-.47Zm-1.89.22v.19h.63v2.86h-.66v.19h.82l0-3.24Zm-.94,1.92v.25h.44v-.25Zm0-.85v.25h.44v-.25Zm-1.13,2v-.06l-.07.25h.76v-.19Z"/></svg>