<svg id="Layer_1" data-name="Layer 1" xmlns="http://www.w3.org/2000/svg" viewBox="0 0 512 512"><defs><style>.cls-1{fill:#527f9f;}</style></defs><g id="skill"><path class="cls-1" d="M512,297.9c0-25.9-14.4-48.3-35.7-60.3a68.23,68.23,0,0,0,7.3-30.5c0-29.2-18.2-54.1-44-64.6a54.33,54.33,0,0,0,1.5-12.2c0-30.8-25.4-55.9-56.7-55.9-.7,0-1.3.2-1.9.2a56.32,56.32,0,0,0-54.7-42.1c-31.3,0-56.7,25-56.7,55.9V261.6l27.7-14.8.1-.1a30.24,30.24,0,0,1,4.8-23c.1-.2.3-.4.4-.6l1.2-1.5a2.65,2.65,0,0,0,.5-.6,31.35,31.35,0,0,1,10.5-7.8v-.1l-9.5-75.5a30.44,30.44,0,0,1-4.6-58.9c19.3-6.4,38.6,6.3,41,25.1a30.54,30.54,0,0,1-17.9,31.6l6.9,54.6c8.6-5.5,19.7-7.9,30.4-10.2,13.7-2.9,26.5-5.7,31.5-13.8,2.2-3.5,3-8.4,2.5-14.5a30.47,30.47,0,0,1-5.3-59c19.4-6.5,38.7,6.2,41.1,25.1a30.55,30.55,0,0,1-17.3,31.3c1.2,10.7-.5,19.5-5.1,26.8-9.2,14.6-27.3,18.5-43.4,22-9.8,2.1-19,4.1-24.8,8a13.16,13.16,0,0,0-5,5.6c0,.1-.1.1-.1.2a30.46,30.46,0,0,1,18.4,46.4c-.3.4-.6.9-.9,1.3s-.5.6-.7.9-.3.4-.5.6a29.71,29.71,0,0,1-8.9,7.1,31.23,31.23,0,0,1-36.3-5l-.2.1-36.5,19.5v19c2.9,3.8,5.7,7.8,8.4,11.8,7.7,11.5,15.1,22.3,24.5,24,4.1.8,9-.3,14.6-3a30.5,30.5,0,0,1,21.2-35.6,31.2,31.2,0,0,1,32.6,9.3,30.34,30.34,0,0,1-8.8,46.8,31.4,31.4,0,0,1-35.9-4.5c-9.7,4.9-18.6,6.6-27.1,5.1-12.9-2.3-21.9-11.6-29.5-21.7v81.1c0,31.7,22.9,59.9,54.7,64.2a63.56,63.56,0,0,0,69.3-42.3,62.39,62.39,0,0,0,10.6,1c35.2,0,63.8-28.1,63.8-62.9a62.57,62.57,0,0,0-1.2-12.3C493.9,351.9,512,327,512,297.9ZM405.9,120.6a6.2,6.2,0,1,0-5.4,6.8A6.19,6.19,0,0,0,405.9,120.6Zm-56,212.6a6.11,6.11,0,0,0,2.5-8.3,6.23,6.23,0,0,0-8.4-2.5,6.11,6.11,0,0,0-2.5,8.3A6.23,6.23,0,0,0,349.9,333.2Zm-21.8-86.1a6,6,0,0,0,3.7-1.9l.2-.2a6,6,0,0,0,.9-7.1,6.23,6.23,0,0,0-8.4-2.5,5.54,5.54,0,0,0-2.1,1.9l-.1.1a5.91,5.91,0,0,0-1.2,4.3A6.35,6.35,0,0,0,328.1,247.1ZM309.8,101.5a6.1,6.1,0,1,0,6.9,5.3A6.15,6.15,0,0,0,309.8,101.5ZM243.6,276.7V88.4c-2.7-30.8-28.2-55.9-59.4-55.9a56.32,56.32,0,0,0-54.7,42.1c-.7,0-1.2-.2-1.9-.2-31.3,0-56.7,25.1-56.7,55.9a49.12,49.12,0,0,0,1.5,12.2c-25.9,10.5-44,35.4-44,64.6a69.58,69.58,0,0,0,7.3,30.5C14.4,249.6,0,272,0,297.9c0,29.1,18.1,54,43.7,64.5a62.57,62.57,0,0,0-1.2,12.3c0,34.7,28.5,62.9,63.8,62.9a61.44,61.44,0,0,0,10.6-1,63.56,63.56,0,0,0,60.2,43c35.2,0,63.8-28.1,66.5-62.9V301.4a6.84,6.84,0,0,1-5.3-3.5h0s.1,3.8.1,4.1a2.2,2.2,0,0,0,.1.8V305c0,.3,0,.5-1.8.8v.1c1.8.3,1.8.6,1.7.8v.4a46.33,46.33,0,0,0,5.2.7h0s-5.3.9-5.4,1.3c0,.2-.1.4-.1.7s-.1.5-.1.8a.37.37,0,0,1-.1.3c0,.2-.1.4-.1.7a6.37,6.37,0,0,0-.2.7,1.42,1.42,0,0,1-.2.6c-.1.3-.1.5-.2.8s-.1.5-.2.7-.1.5-.2.7c-.2.5-.3.9-.5,1.3a30.84,30.84,0,0,1-27.4,19.2h0l-19.8,73.6a30.62,30.62,0,0,1,13.4,33.7,31.09,31.09,0,0,1-37.9,21.7,30.48,30.48,0,0,1,4.6-59.9,12.57,12.57,0,0,0-4.3-6.4c-5.3-4.6-14.1-7.8-23.5-11.2-15.4-5.6-32.9-11.9-40-27.6-3.5-7.8-3.9-16.8-1.3-27.2a30.48,30.48,0,0,1-12.8-33.4,31.09,31.09,0,0,1,37.9-21.7,30.56,30.56,0,0,1,22,37.4A30.94,30.94,0,0,1,118,337.3c-1.4,6-1.3,10.9.4,14.7,3.9,8.6,16.2,13.1,29.4,17.8,10.3,3.7,21,7.6,28.8,14.2l14.3-53.1h0a30,30,0,0,1-11.4-12.8c-.1-.3-.3-.6-.4-.9s-.3-.6-.4-.9l-.3-.9-.3-.9a1.45,1.45,0,0,1-.2-.7l-.3-1.2a2.92,2.92,0,0,1-.2-.9c-.1-.3-.1-.6-.2-.9s-.1-.6-.2-.9-.1-.4-.1-.7c0-.1-.1-.3-.1-.4,0-.3-.1-.6-.1-.9a2.77,2.77,0,0,0-.1-.9,15,15,0,0,1,0-3v-.6c0-.5.1-.9.1-1.4v-.5c0-.2.1-.4.1-.7s.1-.4.1-.6.1-.7.2-1a30.48,30.48,0,0,1,17.5-21.9,13.65,13.65,0,0,0-6.1-4.7c-6.5-2.7-15.9-3-25.9-3.3-16.4-.5-35-1-46.8-13.7-5.8-6.3-9.1-14.7-10-25.4a30.64,30.64,0,1,1,39-31.4,30.54,30.54,0,0,1-20.3,30.7c.6,6.1,2.3,10.8,5.2,13.8,6.4,6.9,19.6,7.3,33.6,7.7,11,.3,22.3.7,31.8,4.5l-3.5-54.9a30.72,30.72,0,1,1,18.6-1l4.9,76a31.49,31.49,0,0,1,14.2,7.8Zm-39.9,28.8v.3a.9.9,0,0,0,.1.5,3.51,3.51,0,0,0,.6,1.4,6.23,6.23,0,0,0,8.4,2.5,6.1,6.1,0,0,0,3.2-5.9h0a.6.6,0,0,0-.1-.4,6.19,6.19,0,0,0-11.6-2,.1.1,0,0,1-.1.1c-.1.1-.1.3-.2.4a1.85,1.85,0,0,0-.2.7h0v.1c0,.1-.1.2-.1.3s-.1.3-.1.4v1.2C203.6,305.3,203.7,305.4,203.7,305.5ZM205,170.2a6.21,6.21,0,1,0-5.8,6.5A6.17,6.17,0,0,0,205,170.2Zm-38.5,263a6.16,6.16,0,0,0,4.4,7.5,6.24,6.24,0,0,0,7.6-4.3,6.16,6.16,0,0,0-4.4-7.5A6.24,6.24,0,0,0,166.5,433.2ZM123.2,308.1a6.12,6.12,0,0,0-4.4-7.5,6.24,6.24,0,0,0-7.6,4.3,6.21,6.21,0,0,0,12,3.2Zm-9.8-113.8A6.11,6.11,0,1,0,120,200,6.16,6.16,0,0,0,113.4,194.3Z"/></g></svg>