<svg class="owls" id="af0d6c00-80a8-43fd-b46f-c61c58e3134e" data-name="Layer 1" xmlns="http://www.w3.org/2000/svg" viewBox="0 0 300 300"><defs><style>.ecf2bd45-e1fa-40f6-a7af-a7090064555a{fill:#fff;}.b8fa3103-44a4-4555-9f6f-063ebb3e0b90{fill:#fcee1d;}</style></defs><path d="M249.35,153.51c0,48,0,90-28.26,113.13L186.5,117.3H112.81L84,241a41.3,41.3,0,0,0-18.11,9.81,91.86,91.86,0,0,0,6.32,9.48c-21.58-24-21.58-62.9-21.58-106.76,0-73,44.48-132.13,99.35-132.13S249.35,80.54,249.35,153.51Z"/><path class="ecf2bd45-e1fa-40f6-a7af-a7090064555a" d="M221.09,266.64c-14.71,12.06-37.08,19-71.09,19q-9.09,0-17.1-.66a29.24,29.24,0,0,0,2.4-11.58c0-18.69-17.81-33.84-39.78-33.84q-.88,0-1.77,0A46.69,46.69,0,0,0,84,241L112.81,117.3H186.5Z"/><polygon class="b8fa3103-44a4-4555-9f6f-063ebb3e0b90" points="148.93 186.78 129.13 141.79 150.1 111.97 170.15 141.14 148.93 186.78"/><circle class="ecf2bd45-e1fa-40f6-a7af-a7090064555a" cx="122.09" cy="116.82" r="27.91"/><circle class="ecf2bd45-e1fa-40f6-a7af-a7090064555a" cx="177.55" cy="116.82" r="27.91"/><circle cx="122.09" cy="115.56" r="9.54"/><circle cx="177.55" cy="117.3" r="9.54"/><path d="M52.75,126.36c-11.31,37.71-17,67.89-28.46,86.77-.95,5.47,1.89,6.82,7.56,5.12,9-5.27,22.92-14.35,25.2-44.36Z"/><path d="M246.5,124.86c11.31,37.71,17,67.89,28.47,86.77.95,5.47-1.9,6.82-7.56,5.12-9-5.27-22.92-14.35-25.2-44.36Z"/><ellipse cx="106.76" cy="198.37" rx="3.93" ry="10.08"/><ellipse cx="125.19" cy="223.39" rx="3.93" ry="10.08"/><ellipse cx="131.64" cy="172.65" rx="3.93" ry="10.08"/><ellipse cx="153.93" cy="256.56" rx="3.93" ry="10.08"/><ellipse cx="161.13" cy="201.47" rx="3.93" ry="10.08"/><ellipse cx="177.55" cy="167.23" rx="3.93" ry="10.08"/><ellipse cx="191.03" cy="221.63" rx="3.93" ry="10.08"/><ellipse cx="177.55" cy="252.18" rx="3.93" ry="10.08"/><ellipse cx="105.5" cy="162.57" rx="3.93" ry="10.08"/><ellipse cx="198.89" cy="188.29" rx="3.93" ry="10.08"/><ellipse cx="94.18" cy="243.55" rx="3.93" ry="10.08"/><path class="b8fa3103-44a4-4555-9f6f-063ebb3e0b90" d="M135.3,273.39A29.24,29.24,0,0,1,132.9,285c-25.13-2-42.59-8.68-54.71-18.92a60.45,60.45,0,0,1-6-5.78c-2.28-3-4.84-5.79-6.78-9.12A43.57,43.57,0,0,1,84,241a46.69,46.69,0,0,1,9.73-1.4q.89,0,1.77,0C117.49,239.55,135.3,254.7,135.3,273.39Z"/><path class="b8fa3103-44a4-4555-9f6f-063ebb3e0b90" d="M165.06,273.39a29.24,29.24,0,0,0,2.4,11.58c25.13-2,42.59-8.68,54.71-18.92a60.45,60.45,0,0,0,6-5.78,91.32,91.32,0,0,0,6.54-9.32,42.36,42.36,0,0,0-18.33-10,46.69,46.69,0,0,0-9.73-1.4q-.88,0-1.77,0C182.87,239.55,165.06,254.7,165.06,273.39Z"/></svg>