<svg class="owls" id="e921ef76-a817-424c-b7cc-1602607f372d" data-name="Layer 1" xmlns="http://www.w3.org/2000/svg" viewBox="0 0 300 300"><defs><style>.e1e28c12-0ec0-4fc1-9ff0-6b3f0303748d{fill:#1d181c;}.e56e0a0d-a821-4711-b3b1-6274cf5bc569{fill:#9b4337;}.bf98b4c4-3a18-49bf-bbae-d700d517bab0{fill:#fff;}.a4c34c23-f1d4-41e9-82ee-f26440266d0c{fill:#4e5323;}.e79c6305-15e6-49a6-b159-3014c8331587{fill:#a18e52;}.ba88a335-bd99-4595-a619-6392134bdddb{fill:#e1ddd1;}.f07471b2-6705-437c-a2bd-29eea1278026{fill:#3b3c69;}.a205f96e-0fd8-442f-b6e9-739cf8d02840{fill:#c7a5a8;}.a71492d7-bda0-4fd3-a419-fb763f22cc99{fill:#92bfcb;}.a215b013-66ba-4061-af58-530b2c163549{fill:#a04d5b;}.b68f27a6-dd17-48ab-8db7-7d7d97e1a107{fill:#dbbb7a;}.ea038852-42e1-4976-8435-edb13a1f8fb9{fill:#75877e;}.f0b7e05c-1c5c-43cc-8756-866e8bc69b4b{fill:#9b5963;}.ae24ed44-1109-4f35-b15b-6f1842f52f79{fill:#788f98;}.ad8ed7a3-8412-4556-9d81-899b59bebb06{fill:#9acc9d;}.ea1a2cab-950d-4d4f-9cb5-af69143608fa{fill:#d69d42;}.b2bf5402-c469-4f5e-81ea-8fedabc432f9{fill:none;stroke:#bde0bf;stroke-miterlimit:10;stroke-width:0.5px;}</style></defs><path class="e1e28c12-0ec0-4fc1-9ff0-6b3f0303748d" d="M260.78,167.42c0,25.51-4.41,47.35-13.09,65-1,2.07-2.09,4.08-3.22,6a42.21,42.21,0,0,0-23.76-10.88l.54-.06-.72-.08q-1.71-.21-3.48-.27-.88,0-1.77,0a45.76,45.76,0,0,0-8.44.77l-.63.12c-17.81,3.35-31.13,16.87-31.13,33a30.48,30.48,0,0,0,7.79,20.11,153.72,153.72,0,0,1-27.35,1.9c-8.86-.06-18.35-.66-28.35-1.68a30.6,30.6,0,0,0,8-20.33c0-18.69-17.81-33.84-39.78-33.84l-1.77,0a42.78,42.78,0,0,0-27.84,11.21c-10.81-18.63-16.31-42.55-16.31-71.05a160.63,160.63,0,0,1,10.23-57l-.06,0c10.78-31.07,6.69-60.7-.54-88.6,17.41,23.16,57,43.92,76.71,43.75h42c14.8.16,52.41-17.33,71.94-38.13-6.31,26.25-9.2,54,.86,83l-.06,0A160.63,160.63,0,0,1,260.78,167.42Z"/><polygon class="e56e0a0d-a821-4711-b3b1-6274cf5bc569" points="154.61 198.79 134.81 153.8 155.79 123.99 175.84 153.16 154.61 198.79"/><circle class="bf98b4c4-3a18-49bf-bbae-d700d517bab0" cx="127.62" cy="126.54" r="27.91"/><path class="a4c34c23-f1d4-41e9-82ee-f26440266d0c" d="M221.26,227.53c-.19,0-.37,0-.55.06h0l-.13,0c-1.29-.16-2.6-.26-3.93-.31l-1.77,0a46.83,46.83,0,0,0-8,.69,45.76,45.76,0,0,1,8.44-.77q.89,0,1.77,0,1.77.06,3.48.27Z"/><path class="e79c6305-15e6-49a6-b159-3014c8331587" d="M85.35,261.86c11.32,9.44,25.28,16,41.82,19.54-16.89-3.51-31.95-10.15-41.82-19.53Z"/><circle class="ba88a335-bd99-4595-a619-6392134bdddb" cx="127.61" cy="126.48" r="27.91"/><circle cx="127.61" cy="126.48" r="16.11"/><path class="f07471b2-6705-437c-a2bd-29eea1278026" d="M155.11,126c0-.37,0-.74-.05-1.1,0-.12,0-.25,0-.37Q155.11,125.27,155.11,126Z"/><path class="a4c34c23-f1d4-41e9-82ee-f26440266d0c" d="M251.15,21.9q-.72,2.81-1.4,5.62c-19.53,20.8-57.14,38.29-71.94,38.13h-3.13C194.49,65.65,233.81,45,251.15,21.9Z"/><path class="e79c6305-15e6-49a6-b159-3014c8331587" d="M156,134.18l-1,0v0C155.37,134.15,155.7,134.16,156,134.18Z"/><path class="a4c34c23-f1d4-41e9-82ee-f26440266d0c" d="M155,124.15c0,.12,0,.25,0,.38,0-.13,0-.25,0-.37Z"/><path class="a4c34c23-f1d4-41e9-82ee-f26440266d0c" d="M155.13,126.48h0v-.12A.49.49,0,0,1,155.13,126.48Z"/><path class="a4c34c23-f1d4-41e9-82ee-f26440266d0c" d="M206.21,228c-17.6,3.48-30.71,16.91-30.71,33a30.54,30.54,0,0,0,7.79,20.12l.18.21-.42.08a1.92,1.92,0,0,1-.18-.22,30.48,30.48,0,0,1-7.79-20.11C175.08,244.91,188.4,231.39,206.21,228Z"/><path class="e79c6305-15e6-49a6-b159-3014c8331587" d="M157.11,134.17h-1.59v-.07h.09l1,0Z"/><path class="e79c6305-15e6-49a6-b159-3014c8331587" d="M225.29,261.78c-11.32,9.44-25.28,16-41.82,19.54,16.89-3.51,31.95-10.15,41.82-19.53Z"/><path class="e79c6305-15e6-49a6-b159-3014c8331587" d="M154.61,134.1l1,0v-.05C155.27,134.07,154.94,134.08,154.61,134.1Z"/><path class="bf98b4c4-3a18-49bf-bbae-d700d517bab0" d="M155.52,126.37v.13c0,.72,0,1.44.09,2.15a26.86,26.86,0,0,0,.95,5.41q3,0,6,0l-5.43-7.85-1.46-2.12a1,1,0,0,0,0,.24c-.06.62-.08,1.25-.08,1.88A.57.57,0,0,0,155.52,126.37Z"/><path class="a4c34c23-f1d4-41e9-82ee-f26440266d0c" d="M155.52,126.24h1.57l-1.46-2.12,0,0c0,.23,0,.46,0,.7s0,.67,0,1C155.54,126,155.52,126.09,155.52,126.24Z"/><path class="a205f96e-0fd8-442f-b6e9-739cf8d02840" d="M135.93,261.86c-.08,7.63-3.76,13.87-8.76,19.54C74,272.35,47.62,227,49.63,159.32,63.05,196.89,136.31,225.25,135.93,261.86Z"/><path class="f07471b2-6705-437c-a2bd-29eea1278026" d="M155.53,126.36v.12H99.71a26.24,26.24,0,0,1,.25-3.68h0a27.46,27.46,0,0,1,3.13-9.64h0c.31-.58.65-1.13,1-1.68s.62-.95,1-1.4c.21-.3.43-.58.66-.86.51-.65,1.05-1.28,1.63-1.89a27.15,27.15,0,0,1,2.9-2.67s0,0,0,0a26.43,26.43,0,0,1,3.28-2.25,25.28,25.28,0,0,1,2.64-1.36l.51-.23a27.36,27.36,0,0,1,2.84-1l0,0a27.89,27.89,0,0,1,24.26,4,24.09,24.09,0,0,1,2.39,1.91l.18.16a27.37,27.37,0,0,1,2.2,2.24l.16.18a28.57,28.57,0,0,1,2,2.57,27.68,27.68,0,0,1,4.7,13.32c0,.12,0,.24,0,.37v0c0,.12,0,.25,0,.37,0,.36,0,.73.05,1.1C155.52,126.13,155.53,126.24,155.53,126.36Z"/><circle class="ba88a335-bd99-4595-a619-6392134bdddb" cx="183.52" cy="126.54" r="27.91"/><circle cx="183.52" cy="126.54" r="16.11"/><path class="f07471b2-6705-437c-a2bd-29eea1278026" d="M211.43,126.42v.12H155.61c0-.58,0-1.15.06-1.72a20.54,20.54,0,0,1,.2-2.09h0c.08-.66.19-1.3.32-1.94a24.53,24.53,0,0,1,.81-3c.13-.44.29-.87.45-1.3s.4-1,.63-1.5a27.62,27.62,0,0,1,2.13-3.84,2.11,2.11,0,0,1,.18-.27,28,28,0,0,1,11.21-9.62c.82-.38,1.65-.73,2.51-1,.45-.16.9-.31,1.36-.45s.88-.26,1.33-.36.92-.22,1.38-.31c.75-.15,1.51-.26,2.28-.34.47-.06.95-.1,1.43-.12s1.08-.05,1.62-.05c.8,0,1.58,0,2.36.1s1.4.14,2.08.26a28.58,28.58,0,0,1,3.47.77,27.49,27.49,0,0,1,4.26,1.67c.28.13.56.27.83.42s.83.44,1.23.69c.59.34,1.16.71,1.72,1.1a26.91,26.91,0,0,1,3.59,3c.51.49,1,1,1.46,1.54l.12.14c.28.31.54.64.8,1s.51.65.74,1l.37.51h0a27.82,27.82,0,0,1,4.77,13.44c0,.12,0,.24,0,.37v0c0,.12,0,.25,0,.37,0,.36,0,.73,0,1.1C211.42,126.19,211.43,126.3,211.43,126.42Z"/><path class="a71492d7-bda0-4fd3-a419-fb763f22cc99" d="M113.77,118.55c1.47-2.42,4.17-2.56,3.22,1.09,3.37,1.24,2.14,4.18-.61,3.18.61,3.13-3,3.61-2.57-.38-1.85,3.23-5.64-.71-1.7-2.18C109.21,118.46,112.67,115.7,113.77,118.55Z"/><circle class="a215b013-66ba-4061-af58-530b2c163549" cx="114.55" cy="120.42" r="1.3"/><path class="a71492d7-bda0-4fd3-a419-fb763f22cc99" d="M104.78,117.08c-1.22-1.54-.67-3.34,1.49-1.85,1.61-1.9,3.23-.39,1.93,1.17,2.19.35,1.62,2.84-.87,1.58,1.67,2-1.81,3.51-1.83.59C103.63,120,102.67,117.11,104.78,117.08Z"/><circle class="a215b013-66ba-4061-af58-530b2c163549" cx="106.19" cy="117.02" r="0.91"/><path class="b68f27a6-dd17-48ab-8db7-7d7d97e1a107" d="M105.36,122.93c-1.23-1.54-.67-3.34,1.48-1.85,1.62-1.9,3.24-.39,1.93,1.17,2.19.35,1.62,2.84-.86,1.58,1.66,2-1.82,3.51-1.83.59C104.21,125.88,103.24,123,105.36,122.93Z"/><circle class="ea038852-42e1-4976-8435-edb13a1f8fb9" cx="106.77" cy="122.87" r="0.91"/><path class="b68f27a6-dd17-48ab-8db7-7d7d97e1a107" d="M102.87,125.52a2,2,0,0,1,.53,1h-2.05a2,2,0,0,1-.13-.25,2,2,0,0,1,0,.25h-1.5a26.24,26.24,0,0,1,.25-3.68h0c.44-1.1,1.5-1.32,2.11.62C104.51,122.91,104.86,125.09,102.87,125.52Z"/><circle class="ea038852-42e1-4976-8435-edb13a1f8fb9" cx="100.91" cy="124.78" r="0.91"/><path class="f0b7e05c-1c5c-43cc-8756-866e8bc69b4b" d="M110.57,114.93c-1.76-.88-2-2.74.57-2.29.66-2.41,2.77-1.72,2.23.24,2.14-.6,2.68,1.9-.11,1.8,2.34,1.1-.17,3.95-1.42,1.31C110.76,118.09,108.66,115.85,110.57,114.93Z"/><circle class="ae24ed44-1109-4f35-b15b-6f1842f52f79" cx="111.82" cy="114.28" r="0.91"/><path class="f0b7e05c-1c5c-43cc-8756-866e8bc69b4b" d="M125.86,98.63c-2.33,1.21-3.75,2.57-3.61,4.16.15,2.27,2.14,3.48,6.48,3.33-2.45.47-3.93,1.17-4.14,2.16,1.44,1.32,3.61,2,6.39,2.15.76,2.1,3.46,4.7,6.93,7.49-1.75-3-3.19-5.76-3.1-7.55-2-.51-3.67-5.31-1.4-5a9.28,9.28,0,0,0,3.51-.72c-3.54,0-6.42-.24-6.3-1.53a7.41,7.41,0,0,1,3.24-2.16l2.74-.94A21.47,21.47,0,0,0,125.86,98.63Z"/><path class="ba88a335-bd99-4595-a619-6392134bdddb" d="M123.91,107.94c.24,3.33,2.32,6.83,4.12,10.6C127.75,114.19,126.62,110.47,123.91,107.94Z"/><path class="ba88a335-bd99-4595-a619-6392134bdddb" d="M125.84,107.3c-1.09,3.16-.56,7.2-.39,11.37C126.91,114.56,127.34,110.7,125.84,107.3Z"/><path class="ba88a335-bd99-4595-a619-6392134bdddb" d="M128,107.74c-2.24,2.48-3.32,6.41-4.79,10.32C126.18,114.85,128.08,111.46,128,107.74Z"/><path class="ba88a335-bd99-4595-a619-6392134bdddb" d="M131.66,112.16c-3.18-1-7.2-.39-11.37-.13C124.43,113.39,128.29,113.73,131.66,112.16Z"/><path class="ba88a335-bd99-4595-a619-6392134bdddb" d="M130.55,116.1c-1.78-2.82-5.27-4.93-8.64-7.4C124.21,112.4,127,115.15,130.55,116.1Z"/><path class="ba88a335-bd99-4595-a619-6392134bdddb" d="M130.13,108.91c-3.13,1.18-5.89,4.18-9,7C125.24,114.38,128.47,112.23,130.13,108.91Z"/><path class="ba88a335-bd99-4595-a619-6392134bdddb" d="M141.71,106.12c-1.68,2.2-2.3,5.51-3.25,8.83C140.67,112.1,142,109.18,141.71,106.12Z"/><path class="ba88a335-bd99-4595-a619-6392134bdddb" d="M143.25,106.79c-2.4,1.36-4.28,4.15-6.46,6.83C139.94,111.87,142.32,109.71,143.25,106.79Z"/><path class="ba88a335-bd99-4595-a619-6392134bdddb" d="M144.37,108.26c-2.75.31-5.57,2.16-8.62,3.78C139.34,111.65,142.37,110.59,144.37,108.26Z"/><path class="ba88a335-bd99-4595-a619-6392134bdddb" d="M144.2,113c-1.41-2.38-4.25-4.19-7-6.31C139,109.79,141.25,112.12,144.2,113Z"/><path class="ba88a335-bd99-4595-a619-6392134bdddb" d="M141.36,114.82c.44-2.73-.58-5.94-1.31-9.32C139.45,109.06,139.65,112.26,141.36,114.82Z"/><path class="ba88a335-bd99-4595-a619-6392134bdddb" d="M145,110.13c-2.59-1-5.94-.63-9.39-.58C139,110.84,142.19,111.28,145,110.13Z"/><path class="f0b7e05c-1c5c-43cc-8756-866e8bc69b4b" d="M106.87,111.46c1.69,1.44-.09,3.28-1.55.9.3,2-2,2.13-2.23.79h0c.31-.58.65-1.13,1-1.68s.62-.95,1-1.4c.21-.3.43-.58.66-.86a2.1,2.1,0,0,1,.13.26C108.2,108.68,108.8,110.81,106.87,111.46Z"/><path class="ae24ed44-1109-4f35-b15b-6f1842f52f79" d="M105.41,111.66a.92.92,0,0,1-1.28-.15l0-.05c.29-.48.62-.95,1-1.4a1,1,0,0,1,.5.32A.91.91,0,0,1,105.41,111.66Z"/><path class="f0b7e05c-1c5c-43cc-8756-866e8bc69b4b" d="M110.63,108.14c-.46,2.17-2.93,1.47-1.53-1a1.34,1.34,0,0,1-1.76.12,27.15,27.15,0,0,1,2.9-2.67s0,0,0,0c1.57-1,3.21-.37,1.64,1.65C113.71,108,112.12,109.53,110.63,108.14Z"/><circle class="ae24ed44-1109-4f35-b15b-6f1842f52f79" cx="110.13" cy="106.11" r="0.91"/><ellipse class="ad8ed7a3-8412-4556-9d81-899b59bebb06" cx="117" cy="112.06" rx="1.31" ry="1.83" transform="translate(-27.63 185.07) rotate(-70.55)"/><ellipse class="ad8ed7a3-8412-4556-9d81-899b59bebb06" cx="119.49" cy="110.04" rx="1.83" ry="1.31" transform="matrix(0.5, -0.87, 0.87, 0.5, -35.56, 158.5)"/><ellipse class="ad8ed7a3-8412-4556-9d81-899b59bebb06" cx="118.28" cy="115.19" rx="1.31" ry="1.83" transform="translate(-35.59 55.33) rotate(-22.99)"/><ellipse class="ad8ed7a3-8412-4556-9d81-899b59bebb06" cx="135.52" cy="102" rx="2.21" ry="1.58" transform="matrix(0.59, -0.81, 0.81, 0.59, -26.71, 151.51)"/><ellipse class="ad8ed7a3-8412-4556-9d81-899b59bebb06" cx="137" cy="105.58" rx="1.58" ry="2.21" transform="translate(-35.09 122.95) rotate(-43.38)"/><ellipse class="ad8ed7a3-8412-4556-9d81-899b59bebb06" cx="131.47" cy="102.4" rx="2.21" ry="1.58" transform="translate(-10.55 15.22) rotate(-6.37)"/><ellipse class="ad8ed7a3-8412-4556-9d81-899b59bebb06" cx="141.75" cy="123.99" rx="1.96" ry="2.73" transform="translate(-46.43 131.24) rotate(-43.38)"/><ellipse class="ad8ed7a3-8412-4556-9d81-899b59bebb06" cx="146.76" cy="115.11" rx="3.04" ry="2.18" transform="translate(11.24 243.26) rotate(-81.51)"/><ellipse class="ad8ed7a3-8412-4556-9d81-899b59bebb06" cx="151.6" cy="122.61" rx="3.16" ry="4.41" transform="translate(-42.79 137.63) rotate(-43.38)"/><path class="f0b7e05c-1c5c-43cc-8756-866e8bc69b4b" d="M145.47,118.46c0-3.45,2.69-5.33,4.05-.94,4.28-.88,4.89,3,1.4,3.69,2.65,2.85-.84,5.69-2.9,1.25.15,4.53-6.31,2.88-3.17-1.17C140.69,121.28,142.52,116.21,145.47,118.46Z"/><circle class="f0b7e05c-1c5c-43cc-8756-866e8bc69b4b" cx="147.49" cy="119.9" r="1.59"/><path class="a71492d7-bda0-4fd3-a419-fb763f22cc99" d="M146.85,117.78c1.79-2.94,5.08-3.12,3.93,1.33,4.1,1.51,2.6,5.09-.75,3.88.75,3.81-3.7,4.39-3.13-.46-2.25,3.93-6.88-.87-2.08-2.66C141.29,117.67,145.52,114.31,146.85,117.78Z"/><circle class="a215b013-66ba-4061-af58-530b2c163549" cx="147.8" cy="120.07" r="1.59"/><path class="ba88a335-bd99-4595-a619-6392134bdddb" d="M130.31,126.48c-2-1.6-2.69-3.12-1.42-4.52a26.65,26.65,0,0,1,5.92-4C130.36,121.42,129.33,124.38,130.31,126.48Z"/><path class="ba88a335-bd99-4595-a619-6392134bdddb" d="M130.31,126.48c1.84-1.51,5.3-.88,7.67-2.71C137.94,126.4,135.24,126.28,130.31,126.48Z"/><path class="ba88a335-bd99-4595-a619-6392134bdddb" d="M130.31,126.48c3.68-1.39,6.45-2.24,5.89-5.43C133.46,124.55,130.79,125.25,130.31,126.48Z"/><path class="ba88a335-bd99-4595-a619-6392134bdddb" d="M130.31,126.48c2.25-1.35,2.41-3.72,1.3-10.19A58.68,58.68,0,0,1,130.31,126.48Z"/><path class="a71492d7-bda0-4fd3-a419-fb763f22cc99" d="M138,119.54c-1.18,1.26-3.34,2.16-6.09,2.84-.55.58-.56,1.06,1.5,1.17,2.43-1,4.27-2.1,5.11-3.58Z"/><path class="a71492d7-bda0-4fd3-a419-fb763f22cc99" d="M139.5,118.55l.63.43c1-1,3.41-3.25,3.41-4.75-.74-.19-.86-.18-1.25,0C142,116.08,140.25,117.87,139.5,118.55Z"/><ellipse class="b68f27a6-dd17-48ab-8db7-7d7d97e1a107" cx="139.11" cy="119.35" rx="1.13" ry="0.85"/><path class="ea1a2cab-950d-4d4f-9cb5-af69143608fa" d="M120.2,126.48c-1.3-2.21-.16-4.33,2.28-6.41,4.17,1.51,5.54,3.76,5.14,6.47h-1.27c.61-2-.22-3.73-3.56-4.88-1.9,1.24-2.66,2.8-1.53,4.88Z"/><path class="ad8ed7a3-8412-4556-9d81-899b59bebb06" d="M116.86,104c-.63.6-1.83.36-2.67-.52a2.71,2.71,0,0,1-.65-1.11,25.28,25.28,0,0,1,2.64-1.36,2.81,2.81,0,0,1,.31.29,3.92,3.92,0,0,1,.27.33,2.48,2.48,0,0,1,.44,1A1.42,1.42,0,0,1,116.86,104Z"/><path class="ad8ed7a3-8412-4556-9d81-899b59bebb06" d="M119.86,101c.07,1.22-.57,2.25-1.44,2.31a1.46,1.46,0,0,1-1.22-.64,2.72,2.72,0,0,1-.44-1,3.46,3.46,0,0,1-.07-.48,2.28,2.28,0,0,1,0-.37,27.36,27.36,0,0,1,2.84-1A3,3,0,0,1,119.86,101Z"/><path class="ad8ed7a3-8412-4556-9d81-899b59bebb06" d="M150.73,110.84a1.88,1.88,0,0,1-2.33.91c-.76-.44-.88-1.65-.27-2.71a2.89,2.89,0,0,1,.64-.77A28.57,28.57,0,0,1,150.73,110.84Z"/><path class="ad8ed7a3-8412-4556-9d81-899b59bebb06" d="M148.61,108.09a1.63,1.63,0,0,1-1.67.84c-.85-.22-1.29-1.36-1-2.54a.88.88,0,0,1,.05-.15,2.45,2.45,0,0,1,.23-.55l.18.16A27.37,27.37,0,0,1,148.61,108.09Z"/><path class="ad8ed7a3-8412-4556-9d81-899b59bebb06" d="M146.41,105.85a1.91,1.91,0,0,1-.41.39,2.77,2.77,0,0,1-1,.49c-1.19.31-2.32-.13-2.54-1s.42-1.6,1.4-2a24.09,24.09,0,0,1,2.39,1.91Z"/><path class="f0b7e05c-1c5c-43cc-8756-866e8bc69b4b" d="M202.11,126.54c1.23,0-1.85-3.64-2.88-3.65-.24-.42,2.7,0,3.72,1.1s1.7-2.95.9-3.68c.19-.42,3.34,1.4,3.54,2.22.12.5,1.26-2,1.26-2l.48-2.46.88-.36a27.44,27.44,0,0,1,1.42,8.81Z"/><path class="ba88a335-bd99-4595-a619-6392134bdddb" d="M196.05,105.36c-1.5,2-2.06,4.93-2.91,7.91C195.12,110.72,196.31,108.1,196.05,105.36Z"/><path class="ba88a335-bd99-4595-a619-6392134bdddb" d="M197.44,106c-2.16,1.22-3.84,3.73-5.79,6.13C194.47,110.51,196.6,108.57,197.44,106Z"/><path class="ba88a335-bd99-4595-a619-6392134bdddb" d="M198.44,107.27c-2.46.28-5,1.93-7.72,3.39C193.93,110.31,196.64,109.36,198.44,107.27Z"/><path class="ba88a335-bd99-4595-a619-6392134bdddb" d="M198.28,111.51c-1.26-2.13-3.81-3.75-6.25-5.65C193.66,108.64,195.64,110.73,198.28,111.51Z"/><path class="ba88a335-bd99-4595-a619-6392134bdddb" d="M195.74,113.15c.39-2.44-.52-5.32-1.18-8.35C194,108,194.21,110.86,195.74,113.15Z"/><path class="ba88a335-bd99-4595-a619-6392134bdddb" d="M199,108.94c-2.32-.87-5.32-.55-8.41-.51C193.63,109.59,196.48,110,199,108.94Z"/><path class="ba88a335-bd99-4595-a619-6392134bdddb" d="M201.82,113.5c-.56,3.24.61,7.08,1.44,11.11C204,120.38,203.82,116.57,201.82,113.5Z"/><path class="ba88a335-bd99-4595-a619-6392134bdddb" d="M203.82,113.35c-1.79,2.76-2.23,6.75-3,10.78C203.13,120.54,204.44,117,203.82,113.35Z"/><path class="ba88a335-bd99-4595-a619-6392134bdddb" d="M205.81,114.29c-2.73,1.84-4.69,5.34-7,8.73C202.37,120.64,205,117.85,205.81,114.29Z"/><path class="ba88a335-bd99-4595-a619-6392134bdddb" d="M208.23,119.37c-2.8-1.73-6.79-2.08-10.84-2.81C201,118.84,204.65,120.08,208.23,119.37Z"/><path class="ba88a335-bd99-4595-a619-6392134bdddb" d="M206.24,122.87c-1-3.12-3.88-6-6.51-9.11C201.06,117.84,203,121.11,206.24,122.87Z"/><path class="ba88a335-bd99-4595-a619-6392134bdddb" d="M207.53,115.89c-3.26.4-6.6,2.62-10.22,4.57C201.57,120,205.17,118.68,207.53,115.89Z"/><path class="ad8ed7a3-8412-4556-9d81-899b59bebb06" d="M194.91,126.54h-2a3,3,0,0,1-.26-.24l0,0-.33-.33-.07-.06s0,0,0,0l-.22-.23-.46-.48c-.3-.33-.58-.66-.85-1a12,12,0,0,1-1.43-2.23,11,11,0,0,1,3.11,1.85l.42.36c.1.09.21.19.31.3a5,5,0,0,1,.46.46h0a0,0,0,0,1,0,0l.34.36,0,.06.31.36C194.49,126,194.7,126.25,194.91,126.54Z"/><path class="ad8ed7a3-8412-4556-9d81-899b59bebb06" d="M194.09,126.54H192.5a1.34,1.34,0,0,1-.07-.18.88.88,0,0,1-.09-.2.61.61,0,0,1-.05-.12,1.11,1.11,0,0,1-.07-.16s0,0,0,0l-.15-.37c-.06-.17-.13-.33-.19-.5s-.15-.4-.21-.59a15.3,15.3,0,0,1-.45-1.47,12,12,0,0,1-.37-2.33,11.28,11.28,0,0,1,1.65,2.07,10.66,10.66,0,0,1,.55,1h0c.11.21.21.43.3.65a5.83,5.83,0,0,1,.23.58,0,0,0,0,1,0,0c.09.22.17.44.24.67,0,.07.05.14.07.22s0,0,0,0C194,126.08,194,126.31,194.09,126.54Z"/><path class="ad8ed7a3-8412-4556-9d81-899b59bebb06" d="M193.93,124.09q0,.47,0,.93a2.44,2.44,0,0,1,0,.27.76.76,0,0,1,0,.15c0,.13,0,.25,0,.38a.09.09,0,0,1,0,.05c0,.22,0,.44-.06.67H192.3a.33.33,0,0,1,0-.14,2.35,2.35,0,0,1,0-.26v-.2c0-.31,0-.62,0-.93,0-.07,0-.15,0-.22s0-.15,0-.22c0-.27,0-.53,0-.79s.07-.75.13-1.11a11.09,11.09,0,0,1,.59-2.48,10.42,10.42,0,0,1,.68,2.36A11.16,11.16,0,0,1,193.93,124.09Z"/><path class="ad8ed7a3-8412-4556-9d81-899b59bebb06" d="M198.19,123a11.27,11.27,0,0,1-3.18,2.35,7.12,7.12,0,0,1-.74.35,2.87,2.87,0,0,1-.37.15h0l-.29.11c-.3.12-.61.22-.92.31h0l-.22.06-.13,0-.52.14H188.7c.74-.36,1.47-.73,2.19-1.07l.64-.32.34-.16.44-.2.15-.07.16-.07.47-.21.25-.11.59-.24.78-.29A13.21,13.21,0,0,1,198.19,123Z"/><path class="ad8ed7a3-8412-4556-9d81-899b59bebb06" d="M197.66,126.54h-4.32l-.09,0-.58-.22,0,0-.28-.11-.05,0-.45-.2h0c-.32-.15-.63-.3-.94-.47a25,25,0,0,1-3.24-2c1,.26,2,.5,3,.74l1,.24.66.17.19.05.11,0,.93.25h0l.36.11a.64.64,0,0,1,.18.06l.9.28A16.46,16.46,0,0,1,197.66,126.54Z"/><path class="ad8ed7a3-8412-4556-9d81-899b59bebb06" d="M195.5,120.5a11,11,0,0,1-.79,3.3,11.38,11.38,0,0,1-.6,1.28,1.82,1.82,0,0,1-.15.27.41.41,0,0,1-.05.09.51.51,0,0,1-.09.16c-.07.13-.15.25-.23.38l-.34.53s0,0,0,0h-1.68c.09-.2.19-.4.29-.6h0a2.2,2.2,0,0,1,.15-.31.91.91,0,0,1,.07-.14l.24-.48a2.69,2.69,0,0,1,.16-.29l0-.1q.13-.25.27-.48c.08-.16.17-.31.26-.46h0c.23-.39.47-.76.72-1.12A12.06,12.06,0,0,1,195.5,120.5Z"/><path class="f0b7e05c-1c5c-43cc-8756-866e8bc69b4b" d="M189.25,111.07c-2.94,1.43-5.37,4.59-8.14,7.6C185,116.83,187.93,114.45,189.25,111.07Z"/><path class="f0b7e05c-1c5c-43cc-8756-866e8bc69b4b" d="M190.53,112.59c-3.27.15-6.75,2.11-10.48,3.78C184.31,116.2,188,115.18,190.53,112.59Z"/><path class="f0b7e05c-1c5c-43cc-8756-866e8bc69b4b" d="M190.92,114.74c-3.07-1.13-7-.69-11.12-.6C183.79,115.64,187.56,116.14,190.92,114.74Z"/><path class="f0b7e05c-1c5c-43cc-8756-866e8bc69b4b" d="M188.22,119.65c-.23-3.27-2.26-6.7-4-10.39C184.47,113.52,185.57,117.16,188.22,119.65Z"/><path class="f0b7e05c-1c5c-43cc-8756-866e8bc69b4b" d="M184.24,120.07c1.92-2.65,2.56-6.58,3.58-10.54C185.3,113,183.8,116.46,184.24,120.07Z"/><path class="f0b7e05c-1c5c-43cc-8756-866e8bc69b4b" d="M190.62,117.07c-2.21-2.41-5.94-3.83-9.61-5.62C183.87,114.61,187,116.77,190.62,117.07Z"/><path class="b68f27a6-dd17-48ab-8db7-7d7d97e1a107" d="M173.28,122.24c.22-2,1.88-2.84,2.35-.25,2.49-.21,2.57,2,.54,2.18,1.3,1.8-.86,3.16-1.73.51-.22,2.57-3.76,1.2-1.71-.88C170.38,123.51,171.76,120.76,173.28,122.24Z"/><circle class="ea038852-42e1-4976-8435-edb13a1f8fb9" cx="174.32" cy="123.19" r="0.91"/><path class="b68f27a6-dd17-48ab-8db7-7d7d97e1a107" d="M165,121c-1.23-1.54-.67-3.34,1.48-1.85,1.62-1.9,3.24-.39,1.93,1.17,2.19.34,1.63,2.84-.86,1.58,1.66,2-1.82,3.51-1.83.59C163.82,124,162.85,121,165,121Z"/><circle class="ea038852-42e1-4976-8435-edb13a1f8fb9" cx="166.38" cy="120.94" r="0.91"/><path class="f0b7e05c-1c5c-43cc-8756-866e8bc69b4b" d="M170.47,118.1c-1.76-.88-2-2.75.57-2.3.66-2.4,2.77-1.71,2.24.25,2.13-.61,2.67,1.9-.12,1.8,2.34,1.09-.17,4-1.41,1.3C170.66,121.26,168.56,119,170.47,118.1Z"/><circle class="ae24ed44-1109-4f35-b15b-6f1842f52f79" cx="171.72" cy="117.45" r="0.91"/><path class="a71492d7-bda0-4fd3-a419-fb763f22cc99" d="M177.56,117.32c1.15-1.59,3-1.55,2.18.93,2.27,1,1.26,3-.59,2.17.26,2.2-2.3,2.34-1.76-.4-1.45,2.14-3.87-.79-1.07-1.6C174.41,117,177,115.29,177.56,117.32Z"/><circle class="a215b013-66ba-4061-af58-530b2c163549" cx="178.01" cy="118.66" r="0.91"/><path class="f0b7e05c-1c5c-43cc-8756-866e8bc69b4b" d="M160,125.26a1.83,1.83,0,0,1,1.15,1.28h-5.39a1.58,1.58,0,0,1,.92-1,3.66,3.66,0,0,1-1-.75,20.54,20.54,0,0,1,.2-2.09h0a3.76,3.76,0,0,1,1.54,0c.81-3,3.41-2.12,2.75.3C162.8,122.29,163.46,125.38,160,125.26Z"/><circle class="ae24ed44-1109-4f35-b15b-6f1842f52f79" cx="158.26" cy="124.77" r="1.12"/><path class="a71492d7-bda0-4fd3-a419-fb763f22cc99" d="M160,117.82c1.89,2.17-.11,3.76-1.66,2-.47,1.5-1.7,1.67-2.13,1a24.53,24.53,0,0,1,.81-3c.13-.44.29-.87.45-1.3s.4-1,.63-1.5a1.81,1.81,0,0,1,0,.79C160.1,114.68,162.06,115.61,160,117.82Z"/><path class="a215b013-66ba-4061-af58-530b2c163549" d="M158.88,117.93a1,1,0,0,1-1.42.42.93.93,0,0,1-.45-.53c.13-.44.29-.87.45-1.3a1.06,1.06,0,0,1,1,0A1,1,0,0,1,158.88,117.93Z"/><path class="ad8ed7a3-8412-4556-9d81-899b59bebb06" d="M167.08,126.54h-4.14a2.23,2.23,0,0,1-.08-2.86c.78-.74,2.26-.45,3.3.64A3.11,3.11,0,0,1,167.08,126.54Z"/><path class="ad8ed7a3-8412-4556-9d81-899b59bebb06" d="M171.31,126.05a3.75,3.75,0,0,1-.25.49h-3.58a3.38,3.38,0,0,1,.23-2c.59-1.39,1.87-2.17,2.87-1.75S171.9,124.66,171.31,126.05Z"/><path class="b2bf5402-c469-4f5e-81ea-8fedabc432f9" d="M166,111.83c0,2.49,1.58,3.42,4,3.6C169.79,113.53,168.46,112.34,166,111.83Z"/><path class="b2bf5402-c469-4f5e-81ea-8fedabc432f9" d="M165.94,111.77c-2.43.54-3,2.3-2.62,4.66Q166,115.56,165.94,111.77Z"/><path class="b2bf5402-c469-4f5e-81ea-8fedabc432f9" d="M165.71,111.72q-3.37,1.48-5.2-.54a2.11,2.11,0,0,1,.18-.27C162.62,109.83,164.36,109.78,165.71,111.72Z"/><path class="b2bf5402-c469-4f5e-81ea-8fedabc432f9" d="M165.78,111.77c1.72-1.8,1.2-3.57-.41-5.33Q163.6,108.66,165.78,111.77Z"/><path class="b2bf5402-c469-4f5e-81ea-8fedabc432f9" d="M166,111.82c2.37.73,3.73-.53,4.58-2.76Q167.78,108.48,166,111.82Z"/><path class="b2bf5402-c469-4f5e-81ea-8fedabc432f9" d="M175.32,110c-1.55,1.89-.91,3.6.81,5.21Q177.71,112.92,175.32,110Z"/><path class="b2bf5402-c469-4f5e-81ea-8fedabc432f9" d="M175.33,109.94c-2.2-1.09-3.72-.08-4.91,2Q173,112.91,175.33,109.94Z"/><path class="b2bf5402-c469-4f5e-81ea-8fedabc432f9" d="M175.18,109.77c.18-2.44-1.33-3.47-3.67-3.8Q171.57,108.79,175.18,109.77Z"/><path class="b2bf5402-c469-4f5e-81ea-8fedabc432f9" d="M175.21,109.85c2.43-.31,3.14-2,3-4.35Q175.46,106.12,175.21,109.85Z"/><path class="b2bf5402-c469-4f5e-81ea-8fedabc432f9" d="M175.33,110c1.37,2,3.19,1.92,5.23.74C179.38,109.29,177.64,109.05,175.33,110Z"/><path class="ad8ed7a3-8412-4556-9d81-899b59bebb06" d="M185,101.79c-1,.41-2.27-.38-2.85-1.78a3.45,3.45,0,0,1-.28-1.33c.54,0,1.08-.05,1.62-.05.8,0,1.58,0,2.36.1C186.33,100.06,186,101.4,185,101.79Z"/><path class="ad8ed7a3-8412-4556-9d81-899b59bebb06" d="M191.43,99.76a3.37,3.37,0,0,1-.28,1.49c-.59,1.38-1.88,2.17-2.87,1.75s-1.32-1.9-.73-3.29A3.37,3.37,0,0,1,188,99,28.58,28.58,0,0,1,191.43,99.76Z"/><path class="b2bf5402-c469-4f5e-81ea-8fedabc432f9" d="M203.91,109.5c0,1.69,1.13,2.3,2.76,2.38C206.52,110.59,205.6,109.8,203.91,109.5Z"/><path class="b2bf5402-c469-4f5e-81ea-8fedabc432f9" d="M203.87,109.45c-1.64.41-2,1.62-1.7,3.22C203.39,112.25,204,111.17,203.87,109.45Z"/><path class="b2bf5402-c469-4f5e-81ea-8fedabc432f9" d="M203.72,109.43c-1-1.37-2.26-1.23-3.63-.35Q201.38,110.52,203.72,109.43Z"/><path class="b2bf5402-c469-4f5e-81ea-8fedabc432f9" d="M204.39,108.4a2.74,2.74,0,0,1-.62,1.06,3.39,3.39,0,0,1-.84-2.6C203.44,107.35,203.92,107.86,204.39,108.4Z"/><path class="b2bf5402-c469-4f5e-81ea-8fedabc432f9" d="M205.31,109.51a2.39,2.39,0,0,1-1.4,0,6,6,0,0,1,.6-.95C204.79,108.85,205.05,109.18,205.31,109.51Z"/><ellipse class="a71492d7-bda0-4fd3-a419-fb763f22cc99" cx="194.58" cy="115.85" rx="1.43" ry="1.99" transform="translate(-31.85 112.81) rotate(-30)"/><ellipse class="a71492d7-bda0-4fd3-a419-fb763f22cc99" cx="193.45" cy="117.05" rx="1.43" ry="2.47" transform="translate(67.9 305.09) rotate(-87.45)"/><ellipse class="a71492d7-bda0-4fd3-a419-fb763f22cc99" cx="194.11" cy="118.32" rx="1.99" ry="1.43" transform="translate(-22.4 187.6) rotate(-49.11)"/><path class="f0b7e05c-1c5c-43cc-8756-866e8bc69b4b" d="M181.64,126.1a2.25,2.25,0,0,1,.63.44h-3.63a1.82,1.82,0,0,1,.31-.19c-1.76-.88-2-2.74.57-2.29.66-2.41,2.77-1.72,2.23.24C183.89,123.7,184.43,126.2,181.64,126.1Z"/><path class="ae24ed44-1109-4f35-b15b-6f1842f52f79" d="M181.1,125.63a.91.91,0,0,1-.55.91h-.7a.91.91,0,1,1,1.25-.91Z"/><path class="b68f27a6-dd17-48ab-8db7-7d7d97e1a107" d="M179,102.74c0,3-3.38,2.76-2.26-.79-1.87,2.18-4.11-.4-2.58-1.69.45-.16.9-.31,1.36-.45s.88-.26,1.33-.36.92-.22,1.38-.31c.75-.15,1.51-.26,2.28-.34a4.72,4.72,0,0,1-.4,1.16C182.92,101.66,181.29,104.12,179,102.74Z"/><path class="ea038852-42e1-4976-8435-edb13a1f8fb9" d="M178.9,100.47a1.21,1.21,0,1,1-2.37-.45,1.14,1.14,0,0,1,.28-.57c.46-.12.92-.22,1.38-.31A1.2,1.2,0,0,1,178.9,100.47Z"/><path class="a71492d7-bda0-4fd3-a419-fb763f22cc99" d="M198.54,103.45c.27,2.2-2.29,2.34-1.75-.4-1.45,2.14-3.88-.79-1.07-1.6l0,0c.28.13.56.27.83.42s.83.44,1.23.69c.59.34,1.16.71,1.72,1.1A1.78,1.78,0,0,1,198.54,103.45Z"/><path class="a215b013-66ba-4061-af58-530b2c163549" d="M197.75,102.54a1,1,0,0,1-.41.06.91.91,0,0,1-.82-.75Q197.15,102.17,197.75,102.54Z"/><ellipse class="a71492d7-bda0-4fd3-a419-fb763f22cc99" cx="183.02" cy="104.95" rx="1.99" ry="1.43" transform="translate(-27.96 105.57) rotate(-30)"/><ellipse class="a71492d7-bda0-4fd3-a419-fb763f22cc99" cx="184.22" cy="106.08" rx="2.47" ry="1.43" transform="translate(70.04 285.39) rotate(-87.45)"/><ellipse class="a71492d7-bda0-4fd3-a419-fb763f22cc99" cx="185.49" cy="105.41" rx="1.43" ry="1.99" transform="translate(-15.62 176.63) rotate(-49.11)"/><ellipse class="ba88a335-bd99-4595-a619-6392134bdddb" cx="185.48" cy="122.69" rx="2.66" ry="1.3" transform="translate(42.25 292.81) rotate(-83.39)"/><path class="a205f96e-0fd8-442f-b6e9-739cf8d02840" d="M174.32,261.86c.08,7.63,3.76,13.87,8.76,19.54,53.16-9,79.55-54.44,77.54-122.08C247.2,196.89,173.94,225.25,174.32,261.86Z"/></svg>