<svg class="owls" id="a5e665b0-e0df-4ffe-ac18-f25f671b5b7d" data-name="Layer 1" xmlns="http://www.w3.org/2000/svg" viewBox="0 0 300 300"><defs><style>.f3293e05-8af4-40b9-8085-9949d8b0fb01{fill:#a06530;}.f8302ba1-6fa1-4a9d-9d42-e9ac904ae208{fill:#d8db97;}.a6d5b09e-f88d-437f-b31c-0c5d0efdb0f4{fill:#fff;}.bcef4527-ee26-4099-879b-7a613848d4f4{fill:#e5e5a2;opacity:0.5;}</style></defs><path class="f3293e05-8af4-40b9-8085-9949d8b0fb01" d="M257.46,164.86c0,73.79-23.42,116.9-107.46,116.9-70.62,0-107.46-43.11-107.46-116.9a160.54,160.54,0,0,1,10.23-57l-.06,0c10.78-31.07,6.69-60.69-.54-88.6,17.41,23.16,57,43.92,76.71,43.76h42c16.12.16,59.3-20.6,76.7-43.76-8.79,24.79-9.49,52.53-.85,87.32A160.59,160.59,0,0,1,257.46,164.86Z"/><path class="f8302ba1-6fa1-4a9d-9d42-e9ac904ae208" d="M222.61,263c-33.71,27.89-113.46,25.48-144.15-3.7L113.34,109.4H187Z"/><circle class="a6d5b09e-f88d-437f-b31c-0c5d0efdb0f4" cx="109.15" cy="123.93" r="27.91"/><circle class="a6d5b09e-f88d-437f-b31c-0c5d0efdb0f4" cx="187.03" cy="122.96" r="27.91"/><circle cx="118.59" cy="113.52" r="9.44"/><circle cx="177.59" cy="113.52" r="9.44"/><path class="bcef4527-ee26-4099-879b-7a613848d4f4" d="M206.84,215.53c4.15,16.65,8.55,33.92,10.32,44.4-9.91,9.42-32.15,14.45-54.48,19.44,18.84-3.26,37.44-3.47,57.12-17.52A198.39,198.39,0,0,0,206.84,215.53Z"/></svg>