<svg class="owls" id="a47b05a4-e64a-4883-9635-5108b2b016d3" data-name="Layer 1" xmlns="http://www.w3.org/2000/svg" viewBox="0 0 300 300"><defs><style>.a38eee00-0539-43b5-9071-b1dbd21183dc{fill:#4e5323;}.e6eacd03-8576-439d-9448-429a1f696056{fill:#d8db97;}.b75b7fad-3e12-4d31-bc90-48a11fc0f18e{fill:#a18e52;}.a19944cf-9fbe-46f6-abe4-84e2099cd5c1{fill:#fff;}.f9ad8f1f-f71e-4e21-b783-59372c16d6a5{fill:#fdee11;}.b9232cac-7e2c-4af1-b627-1a96b449f3cf{fill:#bfbf82;}.a8d62629-dcee-416c-8625-4805d78080fe{fill:#020202;}.b3cc5df5-a864-4223-ab3d-882a674255d6{fill:#fcee1d;}.b2b68f64-6172-4b4f-885a-0bafbd1a0c16{fill:#4a4c22;}.b6c8f732-e4fb-4dab-98bf-8a539ce9078f{fill:#bba461;opacity:0.5;}</style></defs><path class="a38eee00-0539-43b5-9071-b1dbd21183dc" d="M255.93,162.32c0,25.51-4.41,47.35-13.09,65-1,2.07-2.09,4.08-3.22,6a42.21,42.21,0,0,0-23.76-10.88l.54-.06-.72-.08q-1.71-.21-3.48-.27-.88,0-1.77,0a45.76,45.76,0,0,0-8.44.77q-.31,0-.63.12c-17.81,3.35-31.13,16.87-31.13,33A30.48,30.48,0,0,0,178,276.08a153.72,153.72,0,0,1-27.35,1.9c-8.86-.06-18.35-.66-28.35-1.68a30.6,30.6,0,0,0,8-20.33c0-18.69-17.81-33.84-39.78-33.84q-.89,0-1.77,0A42.78,42.78,0,0,0,60.9,233.37c-10.81-18.63-16.31-42.55-16.31-71.05a160.63,160.63,0,0,1,10.23-57l-.06,0c10.78-31.07,6.69-60.7-.54-88.6,17.41,23.16,57,43.92,76.71,43.75h42c14.8.16,52.41-17.33,71.94-38.13-6.31,26.25-9.2,54,.86,83l-.06,0A160.63,160.63,0,0,1,255.93,162.32Z"/><path class="e6eacd03-8576-439d-9448-429a1f696056" d="M202,166.36c2.57-11.77,17.26-12.16,32.42-12.13,0,15.12-7.62,25.67-26,29.8,26.47,2.52,35.25,15.07,30.49,35.28-11.37.74-21.08-4.09-28.53-16.49Z"/><path class="a38eee00-0539-43b5-9071-b1dbd21183dc" d="M216.41,222.43c-.19,0-.37,0-.55.06h0l-.13,0c-1.29-.16-2.6-.26-3.93-.31q-.89,0-1.77,0a46.83,46.83,0,0,0-8,.69,45.76,45.76,0,0,1,8.44-.77q.88,0,1.77,0,1.77.06,3.48.27Z"/><path class="b75b7fad-3e12-4d31-bc90-48a11fc0f18e" d="M80.5,256.76c11.32,9.44,25.28,16,41.82,19.54-16.89-3.51-31.95-10.15-41.82-19.53Z"/><circle class="a19944cf-9fbe-46f6-abe4-84e2099cd5c1" cx="122.36" cy="121.39" r="27.91"/><circle class="a19944cf-9fbe-46f6-abe4-84e2099cd5c1" cx="178.17" cy="121.52" r="27.91"/><circle cx="122.36" cy="121.39" r="16.11"/><path class="a38eee00-0539-43b5-9071-b1dbd21183dc" d="M150.27,121.39H94.45a27.91,27.91,0,0,1,55.82,0Z"/><circle cx="178.17" cy="121.26" r="16.11"/><path class="a38eee00-0539-43b5-9071-b1dbd21183dc" d="M206.08,121.26H150.27a27.91,27.91,0,1,1,55.81,0Z"/><path class="a38eee00-0539-43b5-9071-b1dbd21183dc" d="M246.3,16.8q-.72,2.81-1.4,5.62C225.37,43.22,187.76,60.71,173,60.55h-3.13C189.64,60.55,229,39.87,246.3,16.8Z"/><path class="b75b7fad-3e12-4d31-bc90-48a11fc0f18e" d="M151.18,129.08l-1,0v0C150.52,129.05,150.85,129.06,151.18,129.08Z"/><path class="a19944cf-9fbe-46f6-abe4-84e2099cd5c1" d="M150.27,121.35v.13c0,.72,0,1.44-.09,2.15a26.86,26.86,0,0,1-1,5.41q-3,0-6,0l5.43-7.85,1.46-2.12a1,1,0,0,1,0,.24c.06.62.08,1.25.08,1.88A.57.57,0,0,1,150.27,121.35Z"/><path class="a38eee00-0539-43b5-9071-b1dbd21183dc" d="M150.27,121.35h55.82a27.91,27.91,0,1,0-55.82,0Z"/><path class="a38eee00-0539-43b5-9071-b1dbd21183dc" d="M150.27,121.22H148.7l1.46-2.12,0,0c0,.23,0,.47,0,.7s0,.68,0,1C150.25,120.94,150.27,121.08,150.27,121.22Z"/><polygon class="f9ad8f1f-f71e-4e21-b783-59372c16d6a5" points="149.6 191.8 130.03 147.86 150.26 118.97 169.97 147.5 149.6 191.8"/><path class="a38eee00-0539-43b5-9071-b1dbd21183dc" d="M201.36,222.94c-17.6,3.48-30.71,16.91-30.71,32.95A30.54,30.54,0,0,0,178.44,276l.18.21-.42.08a1.92,1.92,0,0,1-.18-.22A30.48,30.48,0,0,1,170.23,256C170.23,239.81,183.55,226.29,201.36,222.94Z"/><path class="b75b7fad-3e12-4d31-bc90-48a11fc0f18e" d="M152.26,129.07h-1.59V129h.09l1,0Z"/><path class="b75b7fad-3e12-4d31-bc90-48a11fc0f18e" d="M220.44,256.69c-11.32,9.44-25.28,16-41.82,19.54,16.89-3.51,31.95-10.15,41.82-19.53Z"/><path class="a38eee00-0539-43b5-9071-b1dbd21183dc" d="M94.86,121.18h55.81a27.91,27.91,0,1,0-55.81,0Z"/><path class="b75b7fad-3e12-4d31-bc90-48a11fc0f18e" d="M149.76,129l1,0V129C150.42,129,150.09,129,149.76,129Z"/><path class="a19944cf-9fbe-46f6-abe4-84e2099cd5c1" d="M150.67,121.27v.13c0,.72,0,1.44.09,2.15a26.86,26.86,0,0,0,1,5.41q3,0,6,0l-5.43-7.85L150.78,119a1,1,0,0,0,0,.24c-.06.62-.08,1.25-.08,1.88A.57.57,0,0,0,150.67,121.27Z"/><path class="a38eee00-0539-43b5-9071-b1dbd21183dc" d="M150.67,121.14h1.57L150.78,119l0,0c0,.23,0,.47,0,.71s0,.67,0,1C150.69,120.86,150.67,121,150.67,121.14Z"/><path class="b75b7fad-3e12-4d31-bc90-48a11fc0f18e" d="M150.67,118.9V129l-.91,0h0c-2,0-4.06,0-6.07,0Z"/><path class="e6eacd03-8576-439d-9448-429a1f696056" d="M198.46,112.34c6.2-1.53,11.68-.19,16,5.57-1.17,21,13.63,29.1,35.5,31.44-5-29.23-17.89-36.74-35.5-31.44C209.7,113.94,204.23,112.59,198.46,112.34Z"/><path class="e6eacd03-8576-439d-9448-429a1f696056" d="M243.32,97.49c-18.11,1.8-32.86-8.48-44.86-28.72,9.08-4.32,21.35-5.59,40.75,0A121.48,121.48,0,0,0,243.32,97.49Z"/><path class="e6eacd03-8576-439d-9448-429a1f696056" d="M92,208.51c-16.12-12.72-11.4-32.76-9.07-58C93.44,155.92,97,160.66,100.69,172Z"/><path class="e6eacd03-8576-439d-9448-429a1f696056" d="M96.6,110.41c-1.83,4.07-4.38,6.18-7.86,5.76C82.49,137.5,72,158.28,55.08,168.49c-10.9-25.33-3.62-57.18,33.66-52.32A18.26,18.26,0,0,0,96.6,110.41Z"/><path class="e6eacd03-8576-439d-9448-429a1f696056" d="M88.74,52.21C116,57.56,108,80.08,96.6,102.61,82.19,84.23,76.13,64.65,88.74,52.21Z"/><path class="e6eacd03-8576-439d-9448-429a1f696056" d="M77.75,38.68q-20,29.51-5.63,59C66,81.09,66.33,62,77.75,38.68Z"/><path class="e6eacd03-8576-439d-9448-429a1f696056" d="M154.17,83.05q-.43-10.68,9.63-12.24C164.8,77.37,162.06,81.72,154.17,83.05Z"/><path class="e6eacd03-8576-439d-9448-429a1f696056" d="M146.08,106.1c-1.73-3.82-2.79-6.1-8.12-9.19h0A34.41,34.41,0,0,0,126.45,94V94c-4.11-.25-8.36-.46-12.43.44-7.11-15.27,9.5-20.32,12.65-8.44,2.77-25.08,25.69-11.83,18.21,3.15C153.07,86.53,160.3,98,146.08,106.1Z"/><path class="e6eacd03-8576-439d-9448-429a1f696056" d="M171.55,94.3a32,32,0,0,1,9.89-.76s6.92,1.22,8.74,2.21l0,0a33.6,33.6,0,0,1,7.72,5.27c10.66-6.85,2.13-16.73-4.65-10.45,8.32-17-11.57-17.84-12.84-5.31C176.26,80.29,165.76,83.44,171.55,94.3Z"/><path class="b9232cac-7e2c-4af1-b627-1a96b449f3cf" d="M88.74,116.17C63.35,124.64,60.13,142.31,57.06,160,62,139.82,71,123.67,88.74,116.17Z"/><path class="b9232cac-7e2c-4af1-b627-1a96b449f3cf" d="M80.43,119.65c-7.47,0-14,3.66-18.63,6.36C68.19,123.1,75.37,120.23,80.43,119.65Z"/><path class="b9232cac-7e2c-4af1-b627-1a96b449f3cf" d="M81,120.37c-4,3.8-2.6,7-2.66,14.37C78.89,127.42,78.22,124.69,81,120.37Z"/><path class="b9232cac-7e2c-4af1-b627-1a96b449f3cf" d="M69.05,128.31c-5.36.28-9.21,5.26-13.61,9.79C60.19,134.11,64.31,130.3,69.05,128.31Z"/><path class="b9232cac-7e2c-4af1-b627-1a96b449f3cf" d="M70.18,130.48c1.88,3.75.89,10.51-.61,17.94C70.5,140.68,71.09,134.07,70.18,130.48Z"/><path class="b9232cac-7e2c-4af1-b627-1a96b449f3cf" d="M61.8,140.44c-5.51,2.7-6.41,8.63-7.71,13C55.72,148.13,58.45,142.79,61.8,140.44Z"/><path class="b9232cac-7e2c-4af1-b627-1a96b449f3cf" d="M63.53,141.36c1.33,4.71.4,10-.89,15.43A117.47,117.47,0,0,0,63.53,141.36Z"/><path class="b9232cac-7e2c-4af1-b627-1a96b449f3cf" d="M94.85,196.5c-.46-16-3.9-28.77-9-39.71C90.08,173.74,93.33,187.76,94.85,196.5Z"/><path class="b9232cac-7e2c-4af1-b627-1a96b449f3cf" d="M94.85,196.5a60.09,60.09,0,0,0,1.75-27.2A104.2,104.2,0,0,1,94.85,196.5Z"/><path class="b9232cac-7e2c-4af1-b627-1a96b449f3cf" d="M94.85,196.5c-5.92-.76-7.94-7.7-10-13.6C87.23,188.43,89.2,193.41,94.85,196.5Z"/><path class="b9232cac-7e2c-4af1-b627-1a96b449f3cf" d="M92.26,183.7c-2.67-7.39-5.4-13.28-8.29-14.4C86.22,172.18,89.1,177.44,92.26,183.7Z"/><path class="b9232cac-7e2c-4af1-b627-1a96b449f3cf" d="M93.66,182.9a37,37,0,0,0-1.4-20.71A66.13,66.13,0,0,1,93.66,182.9Z"/><path class="b9232cac-7e2c-4af1-b627-1a96b449f3cf" d="M207.72,190c9.5,4.57,19.08,14.06,28.68,24.84C225.24,204.4,215.28,195.59,207.72,190Z"/><path class="b9232cac-7e2c-4af1-b627-1a96b449f3cf" d="M211.16,191.84c6.8-.86,11.4.49,15.16,2.69Q221.42,192.93,211.16,191.84Z"/><path class="b9232cac-7e2c-4af1-b627-1a96b449f3cf" d="M211.16,192.62c-1.59,4.4,1.36,9.07,5.25,13.79C213.59,201.68,211.52,197,211.16,192.62Z"/><path class="b9232cac-7e2c-4af1-b627-1a96b449f3cf" d="M218.34,198.55a41.48,41.48,0,0,1,8,16.26C224.1,209.81,221.34,204.42,218.34,198.55Z"/><path class="b9232cac-7e2c-4af1-b627-1a96b449f3cf" d="M220.29,198.55c4.25-.18,9.25,1.87,14.61,5A81,81,0,0,0,220.29,198.55Z"/><path class="b9232cac-7e2c-4af1-b627-1a96b449f3cf" d="M229.25,208.21c0,1.43,1.8,4.31,4,7.5A75.25,75.25,0,0,0,229.25,208.21Z"/><path class="b9232cac-7e2c-4af1-b627-1a96b449f3cf" d="M229.25,207.07c.48-1,4.53,2.76,9.07,3.54C236.4,211,233.19,209,229.25,207.07Z"/><path class="b9232cac-7e2c-4af1-b627-1a96b449f3cf" d="M204.34,174.2c5.78,4.33,16.92-7.51,27.59-17.91C220.52,165.81,208.09,177,204.34,174.2Z"/><path class="b9232cac-7e2c-4af1-b627-1a96b449f3cf" d="M206.08,174.61c-1.67-5,.46-9.32,5.06-13.14C207.7,165.25,205.73,169.53,206.08,174.61Z"/><path class="b9232cac-7e2c-4af1-b627-1a96b449f3cf" d="M206.91,175.12c2.14,4.39,10.59,1.09,19.62-3.57-8.71,3.86-16.79,6.95-19.62,3.57"/><path class="b9232cac-7e2c-4af1-b627-1a96b449f3cf" d="M212.4,171.55c4.58-4.67,6.77-9.45,7.29-14.31A53.83,53.83,0,0,1,212.4,171.55Z"/><path class="b9232cac-7e2c-4af1-b627-1a96b449f3cf" d="M217.81,169.57c4.31-.44,8.11-1.39,13.13-6.66C226,167.13,222.25,167.78,217.81,169.57Z"/><path class="b9232cac-7e2c-4af1-b627-1a96b449f3cf" d="M214.51,117.91a97.16,97.16,0,0,1,32.93,29.49Q235.35,132.65,214.51,117.91Z"/><path class="b9232cac-7e2c-4af1-b627-1a96b449f3cf" d="M217.9,119.89a30.79,30.79,0,0,1,18,4.12A52.74,52.74,0,0,0,217.9,119.89Z"/><path class="b9232cac-7e2c-4af1-b627-1a96b449f3cf" d="M217.11,119.77c-.2,4.54,2.82,10.16,7.13,16.2C220.42,130.15,217.58,124.61,217.11,119.77Z"/><path class="b9232cac-7e2c-4af1-b627-1a96b449f3cf" d="M225.7,126.33c-.78,3.31,2.07,9.18,5.28,15.3C228.2,135.64,225.76,130,225.7,126.33Z"/><path class="b9232cac-7e2c-4af1-b627-1a96b449f3cf" d="M227.06,126.14c3.5-.18,9.33,2.71,15.85,6.51C236.54,129.68,230.86,127.21,227.06,126.14Z"/><path class="b9232cac-7e2c-4af1-b627-1a96b449f3cf" d="M235.35,134.65c-.47,2.13,2.49,6.24,5.49,10.38C238.42,140.87,235.91,136.59,235.35,134.65Z"/><path class="b9232cac-7e2c-4af1-b627-1a96b449f3cf" d="M237.5,135.36c4.75,2.27,7.63,5.09,9.4,8.23A44,44,0,0,0,237.5,135.36Z"/><path class="b9232cac-7e2c-4af1-b627-1a96b449f3cf" d="M88.74,52.21c5.42,12.7,7.35,27.89,7.86,44.1A311,311,0,0,0,88.74,52.21Z"/><path class="b9232cac-7e2c-4af1-b627-1a96b449f3cf" d="M89.54,55.54c-3.5,4.73-3.1,11.65-2.42,18.72C86.87,68.3,87.05,62.22,89.54,55.54Z"/><path class="b9232cac-7e2c-4af1-b627-1a96b449f3cf" d="M90.61,57.09a34.54,34.54,0,0,1,11.15,17.17A87.37,87.37,0,0,0,90.61,57.09Z"/><path class="b9232cac-7e2c-4af1-b627-1a96b449f3cf" d="M93.48,74.26c-2.29,3.64-1.84,8.93-.81,14.56A56,56,0,0,1,93.48,74.26Z"/><path class="b9232cac-7e2c-4af1-b627-1a96b449f3cf" d="M94.86,76.09c3.85,3,4.4,7.49,5,12.73C98.14,84.22,97.35,79.9,94.86,76.09Z"/><path class="b9232cac-7e2c-4af1-b627-1a96b449f3cf" d="M154.17,83.05c3.17-2.55,6-6.69,8.82-11.32A112.39,112.39,0,0,1,154.17,83.05Z"/><path class="b9232cac-7e2c-4af1-b627-1a96b449f3cf" d="M155.37,81.71a12.34,12.34,0,0,1,2-5.87A21.39,21.39,0,0,0,155.37,81.71Z"/><path class="b9232cac-7e2c-4af1-b627-1a96b449f3cf" d="M156.62,80.73c1.4,0,3.21-1.59,5.16-3.8A25.78,25.78,0,0,1,156.62,80.73Z"/><path class="b9232cac-7e2c-4af1-b627-1a96b449f3cf" d="M158.58,77.76c-.27-1.58.5-3.26,1.84-5A19.39,19.39,0,0,0,158.58,77.76Z"/><path class="b9232cac-7e2c-4af1-b627-1a96b449f3cf" d="M160.16,76.17c1-.08,2.1-1.51,3.24-3.21A22,22,0,0,1,160.16,76.17Z"/><path class="b9232cac-7e2c-4af1-b627-1a96b449f3cf" d="M241.63,90.31c-2.23-13.74-17.81-15.7-35.14-18.58C223,76.45,237.87,79.81,241.63,90.31Z"/><path class="b9232cac-7e2c-4af1-b627-1a96b449f3cf" d="M240.84,86.41c-1-7.74-3.7-13.86-10-16.56A26.28,26.28,0,0,1,240.84,86.41Z"/><path class="b9232cac-7e2c-4af1-b627-1a96b449f3cf" d="M241.39,89.7c-3.73,3.91-10.35,2.74-18.79-1.61C230,90.88,236.5,91.92,241.39,89.7Z"/><path class="b9232cac-7e2c-4af1-b627-1a96b449f3cf" d="M237.33,84.05c1.53,3.54-5.74,2.93-19.29-.64C228.93,85.39,237.34,86.39,237.33,84.05Z"/><path class="b9232cac-7e2c-4af1-b627-1a96b449f3cf" d="M234.7,79.55c-2.43-4.28-9.21-7.38-15.82-10.54C224.82,72.24,230.7,75.49,234.7,79.55Z"/><path class="b9232cac-7e2c-4af1-b627-1a96b449f3cf" d="M230.88,79.81c-6.27.54-13.37-1.34-20.94-4.56C217.38,77.82,224.44,79.51,230.88,79.81Z"/><path class="b9232cac-7e2c-4af1-b627-1a96b449f3cf" d="M225.86,75.6c-4.12-2.36-6.9-4.78-14.24-6.83C218.44,71.16,221.25,73.62,225.86,75.6Z"/><path class="b9232cac-7e2c-4af1-b627-1a96b449f3cf" d="M127.06,94.07c.52-3.23,3.35-4.83,8.09-5.06,5.13,3,5.7,5.44,4.38,8.86A30.89,30.89,0,0,0,127.06,94.07Z"/><path class="b9232cac-7e2c-4af1-b627-1a96b449f3cf" d="M135.15,89c-.67-3.75.54-8.27,2.2-13A27.51,27.51,0,0,1,135.15,89Z"/><path class="b9232cac-7e2c-4af1-b627-1a96b449f3cf" d="M127.06,94.07a16.2,16.2,0,0,1-8.83-9.75C120.9,87.27,123.82,90.48,127.06,94.07Z"/><path class="b9232cac-7e2c-4af1-b627-1a96b449f3cf" d="M139.53,97.87c4.21-.05,7.79-1.68,11.18-3.8A114.47,114.47,0,0,0,139.53,97.87Z"/><path class="b9232cac-7e2c-4af1-b627-1a96b449f3cf" d="M181.44,93.54c1.27-3.92,3.19-4.88,6.34-4.72,4.06,1.47,4.27,4.2,3.25,7.35A40.51,40.51,0,0,0,181.44,93.54Z"/><path class="b9232cac-7e2c-4af1-b627-1a96b449f3cf" d="M191,96.17c3.18.66,5.86-.82,8.23-3.68A15.69,15.69,0,0,1,191,96.17Z"/><path class="b9232cac-7e2c-4af1-b627-1a96b449f3cf" d="M187.78,88.82c-.66-3.19.33-6.55,2.06-10A35.13,35.13,0,0,1,187.78,88.82Z"/><path class="b9232cac-7e2c-4af1-b627-1a96b449f3cf" d="M181.44,93.54c-3.58-.82-5.23-2.6-6.61-6.37a15.82,15.82,0,0,0,6.61,6.37"/><path class="b75b7fad-3e12-4d31-bc90-48a11fc0f18e" d="M181.86,256a30.12,30.12,0,0,0,6,17.88,86.84,86.84,0,0,1-9.42,2.16l.18.21-.42.08a1.92,1.92,0,0,1-.18-.22,153.72,153.72,0,0,1-27.35,1.9c-8.86-.06-18.35-.66-28.35-1.68a30.6,30.6,0,0,0,8-20.33c0-18.69-17.81-33.84-39.78-33.84q-.89,0-1.77,0l18.06-75.89c0-11.08,21.4-16.68,43.38-17.17h2.08c22.55-.18,45,5,45,15.17l18.39,78.11,0,.12v0C196.56,224.93,181.86,239,181.86,256Z"/><path class="a8d62629-dcee-416c-8625-4805d78080fe" d="M170.65,255.9a30.6,30.6,0,0,0,8,20.33c16.54-3.5,30.5-10.1,41.82-19.54A86.71,86.71,0,0,0,240,233.3a42.78,42.78,0,0,0-27.84-11.21q-.88,0-1.77,0C188.46,222.06,170.65,237.21,170.65,255.9Z"/><path class="a8d62629-dcee-416c-8625-4805d78080fe" d="M130.29,256a30.6,30.6,0,0,1-8,20.33c-16.54-3.5-30.5-10.1-41.82-19.54a86.71,86.71,0,0,1-19.6-23.39,42.78,42.78,0,0,1,27.84-11.21q.89,0,1.77,0C112.48,222.13,130.29,237.28,130.29,256Z"/><polygon class="b3cc5df5-a864-4223-ab3d-882a674255d6" points="149.76 193.69 129.96 148.71 150.94 118.89 170.99 148.06 149.76 193.69"/><circle class="a19944cf-9fbe-46f6-abe4-84e2099cd5c1" cx="178.58" cy="121.31" r="27.91"/><circle class="a19944cf-9fbe-46f6-abe4-84e2099cd5c1" cx="122.77" cy="121.45" r="27.91"/><circle cx="178.58" cy="121.31" r="16.11"/><path class="b2b68f64-6172-4b4f-885a-0bafbd1a0c16" d="M150.67,121.18h55.82a27.91,27.91,0,1,0-55.82,0Z"/><circle cx="122.77" cy="121.18" r="16.11"/><path class="b2b68f64-6172-4b4f-885a-0bafbd1a0c16" d="M150.67,121.27H94.85a27.91,27.91,0,1,1,55.82,0Z"/><path class="b6c8f732-e4fb-4dab-98bf-8a539ce9078f" d="M204.34,189.7l4.59,25.73c-61.78,7.14-45.25,46.12-36.31,57.7-7.38-17.52-15.66-50.19,39.78-55l-8.06-29.52"/></svg>